<?xml version="1.0" standalone="no"?>
<!DOCTYPE svg PUBLIC "-//W3C//DTD SVG 20010904//EN"
 "http://www.w3.org/TR/2001/REC-SVG-20010904/DTD/svg10.dtd">
<svg version="1.0" xmlns="http://www.w3.org/2000/svg"
 width="690.000000pt" height="690.000000pt" viewBox="0 0 690.000000 690.000000"
 preserveAspectRatio="xMidYMid meet">
<metadata>
Created by potrace 1.11, written by Peter Selinger 2001-2013
</metadata>
<g transform="translate(0.000000,690.000000) scale(0.100000,-0.100000)"
fill="#000000" stroke="none">
<path d="M3955 6885 c-131 -17 -286 -50 -407 -86 l-97 -29 -404 0 c-275 0
-415 -4 -438 -11 -76 -26 -129 -110 -114 -182 10 -50 49 -102 92 -123 35 -18
71 -19 483 -24 444 -5 445 -5 493 -29 62 -30 138 -106 168 -168 l24 -48 5
-685 c5 -637 6 -688 24 -735 40 -108 107 -178 225 -234 l76 -36 690 -6 c452
-3 701 -9 721 -16 94 -33 176 -109 226 -210 l33 -68 8 -1440 c4 -792 11 -1460
15 -1485 6 -36 13 -48 36 -59 26 -12 35 -11 80 8 28 12 97 49 153 83 377 227
604 510 701 873 42 157 55 277 55 510 -1 318 -40 553 -122 720 -27 55 -37 84
-31 96 17 31 78 246 100 349 66 319 68 706 5 1015 -172 849 -755 1545 -1563
1866 -177 70 -409 128 -622 155 -141 17 -477 17 -615 -1z"/>
<path d="M1396 5488 c-27 -24 -130 -202 -223 -384 -53 -104 -60 -113 -117
-150 -157 -101 -391 -318 -512 -474 -224 -288 -370 -618 -435 -985 -20 -112
-24 -163 -24 -365 0 -202 4 -253 24 -365 78 -436 277 -835 562 -1130 56 -57
60 -67 109 -210 269 -787 792 -1257 1540 -1384 533 -91 1019 -9 1605 268 231
110 666 364 699 408 11 14 21 47 24 73 3 39 0 51 -21 76 l-25 29 -1349 5
-1348 5 -72 38 c-89 48 -178 135 -223 219 l-35 63 -6 275 c-4 151 -10 1094
-14 2095 -4 1131 -10 1832 -16 1852 -19 61 -95 83 -143 41z"/>
</g>
</svg>
