<svg width="53" height="71" viewBox="0 0 53 71" fill="none" xmlns="http://www.w3.org/2000/svg">
<path d="M0.113281 5.35461C0.113281 2.55402 2.38361 0.283691 5.1842 0.283691H24.3227C25.6305 0.283691 26.8876 0.788901 27.8317 1.69382L51.2889 24.1781C52.2867 25.1345 52.8509 26.4568 52.8509 27.8389V65.1915C52.8509 67.9921 50.5805 70.2624 47.7799 70.2624H5.18421C2.38361 70.2624 0.113281 67.9921 0.113281 65.1915V5.35461Z" fill="#DFF3FC"/>
<path d="M15.2608 34.9286C15.4021 34.9063 15.5583 34.8914 15.7293 34.8839C15.9078 34.8691 16.09 34.8616 16.276 34.8616C16.4693 34.8542 16.6553 34.8505 16.8338 34.8505C17.0197 34.843 17.1908 34.8393 17.3469 34.8393C17.9717 34.8393 18.5109 34.936 18.9646 35.1294C19.4257 35.3228 19.805 35.5942 20.1025 35.9438C20.4 36.2859 20.6194 36.6987 20.7607 37.1821C20.9094 37.6655 20.9838 38.1973 20.9838 38.7774C20.9838 39.3055 20.9132 39.8149 20.7718 40.3058C20.638 40.7892 20.4223 41.2206 20.1248 41.5999C19.8273 41.9717 19.4406 42.273 18.9646 42.5035C18.4886 42.7266 17.9122 42.8382 17.2354 42.8382C17.1164 42.8382 16.9602 42.8345 16.7668 42.827C16.5809 42.827 16.3875 42.8196 16.1867 42.8047C15.9859 42.7973 15.8 42.7899 15.6289 42.7824C15.4579 42.775 15.3351 42.7638 15.2608 42.7489V34.9286ZM17.3693 35.6649C17.2726 35.6649 17.1647 35.6649 17.0457 35.6649C16.9342 35.6649 16.8226 35.6686 16.711 35.676C16.5995 35.6835 16.4954 35.6909 16.3987 35.6983C16.3094 35.7058 16.2388 35.7132 16.1867 35.7207V41.968C16.2239 41.9755 16.2946 41.9829 16.3987 41.9903C16.5028 41.9903 16.6106 41.9941 16.7222 42.0015C16.8338 42.0015 16.9416 42.0052 17.0457 42.0127C17.1498 42.0127 17.2205 42.0127 17.2577 42.0127C17.7783 42.0127 18.2134 41.9234 18.5629 41.7449C18.9199 41.5664 19.2026 41.3284 19.4108 41.0309C19.6265 40.726 19.779 40.3802 19.8682 39.9934C19.9575 39.5992 20.0021 39.1939 20.0021 38.7774C20.0021 38.413 19.9612 38.0485 19.8794 37.6841C19.7975 37.3122 19.6562 36.9776 19.4554 36.6801C19.2546 36.3826 18.9832 36.1409 18.641 35.9549C18.3064 35.7616 17.8824 35.6649 17.3693 35.6649ZM22.2366 38.8332C22.2366 37.5316 22.5118 36.535 23.0621 35.8434C23.6125 35.1443 24.3971 34.7947 25.4161 34.7947C25.9664 34.7947 26.4424 34.8914 26.844 35.0848C27.2456 35.2781 27.5766 35.5533 27.8369 35.9103C28.1047 36.2599 28.3018 36.6838 28.4282 37.1821C28.5546 37.673 28.6178 38.2233 28.6178 38.8332C28.6178 40.1347 28.3389 41.135 27.7811 41.8342C27.2308 42.5258 26.4424 42.8717 25.4161 42.8717C24.8731 42.8717 24.4009 42.775 23.9992 42.5816C23.6051 42.3882 23.2741 42.1168 23.0064 41.7672C22.7461 41.4102 22.5527 40.9863 22.4262 40.4954C22.2998 39.9971 22.2366 39.443 22.2366 38.8332ZM23.2183 38.8332C23.2183 39.2645 23.2592 39.6736 23.341 40.0603C23.4303 40.4471 23.5642 40.7892 23.7427 41.0867C23.9212 41.3768 24.148 41.611 24.4232 41.7895C24.7058 41.9606 25.0368 42.0461 25.4161 42.0461C26.1077 42.0461 26.6507 41.7858 27.0448 41.2652C27.439 40.7371 27.6361 39.9265 27.6361 38.8332C27.6361 38.4093 27.5915 38.0039 27.5022 37.6172C27.4204 37.223 27.2866 36.8809 27.1006 36.5908C26.9221 36.2933 26.6916 36.0591 26.4089 35.888C26.1338 35.7095 25.8028 35.6202 25.4161 35.6202C24.7318 35.6202 24.1926 35.8843 23.7984 36.4123C23.4117 36.9329 23.2183 37.7399 23.2183 38.8332ZM35.1842 42.4143C34.9611 42.5853 34.6785 42.7043 34.3363 42.7713C33.9942 42.8382 33.6298 42.8717 33.2431 42.8717C32.7745 42.8717 32.3357 42.7936 31.9266 42.6374C31.5176 42.4738 31.1606 42.2283 30.8557 41.9011C30.5507 41.5738 30.309 41.1574 30.1305 40.6516C29.952 40.1384 29.8628 39.5323 29.8628 38.8332C29.8628 38.1043 29.9595 37.487 30.1528 36.9813C30.3536 36.4681 30.614 36.0516 30.9338 35.7318C31.261 35.4046 31.6254 35.1666 32.0271 35.0178C32.4287 34.8691 32.8377 34.7947 33.2542 34.7947C33.7005 34.7947 34.0649 34.8207 34.3475 34.8728C34.6301 34.9174 34.8718 34.9806 35.0726 35.0624L34.8495 35.8768C34.4925 35.7058 33.9831 35.6202 33.3212 35.6202C33.0162 35.6202 32.715 35.676 32.4175 35.7876C32.12 35.8991 31.8523 36.0814 31.6143 36.3342C31.3837 36.5871 31.1978 36.9181 31.0565 37.3271C30.9152 37.7362 30.8445 38.2382 30.8445 38.8332C30.8445 39.3687 30.9114 39.8372 31.0453 40.2388C31.1792 40.6405 31.3614 40.9751 31.592 41.2429C31.83 41.5106 32.1051 41.7114 32.4175 41.8453C32.7373 41.9792 33.0832 42.0461 33.455 42.0461C33.7897 42.0461 34.0798 42.0127 34.3252 41.9457C34.5781 41.8788 34.79 41.7932 34.9611 41.6891L35.1842 42.4143Z" fill="#64697B"/>
</svg>
