<svg width="70" height="70" viewBox="0 0 70 70" fill="none" xmlns="http://www.w3.org/2000/svg">
<mask id="path-2-inside-1" fill="white">
<path d="M35 0C15.701 0 0 15.701 0 35C0 54.299 15.701 70 35 70C54.299 70 70 54.299 70 35C70 15.701 54.299 0 35 0ZM35 67.2656C17.2087 67.2656 2.73436 52.7913 2.73436 35C2.73436 17.2087 17.2087 2.73436 35 2.73436C52.7913 2.73436 67.2656 17.2087 67.2656 35C67.2656 52.7913 52.7913 67.2656 35 67.2656Z"/>
</mask>
<path d="M35 0C15.701 0 0 15.701 0 35C0 54.299 15.701 70 35 70C54.299 70 70 54.299 70 35C70 15.701 54.299 0 35 0ZM35 67.2656C17.2087 67.2656 2.73436 52.7913 2.73436 35C2.73436 17.2087 17.2087 2.73436 35 2.73436C52.7913 2.73436 67.2656 17.2087 67.2656 35C67.2656 52.7913 52.7913 67.2656 35 67.2656Z" fill="#8EDAC2" stroke="white" stroke-width="1.6" mask="url(#path-2-inside-1)"/>
<mask id="path-3-inside-2" fill="white">
<path d="M35 8.20312C20.2242 8.20312 8.20312 20.2242 8.20312 35C8.20312 49.7758 20.2242 61.7969 35 61.7969C49.7758 61.7969 61.7969 49.7758 61.7969 35C61.7969 20.2242 49.7758 8.20312 35 8.20312ZM36.3672 59.0229V56.3283C36.3672 55.5732 35.7551 54.9612 35 54.9612C34.2449 54.9612 33.6328 55.5732 33.6328 56.3283V59.0229C21.4511 58.3371 11.6629 48.5489 10.9771 36.3672H13.6719C14.4269 36.3672 15.039 35.7551 15.039 35C15.039 34.2449 14.4269 33.6328 13.6719 33.6328H10.9771C11.6629 21.4511 21.4511 11.6631 33.6328 10.9773V13.6719C33.6328 14.4269 34.2449 15.039 35 15.039C35.7551 15.039 36.3672 14.4269 36.3672 13.6719V10.9773C48.5489 11.6631 58.3371 21.4511 59.0229 33.6328H56.3282C55.5731 33.6328 54.961 34.2449 54.961 35C54.961 35.7551 55.5731 36.3672 56.3282 36.3672H59.0229C58.3371 48.5489 48.5489 58.3371 36.3672 59.0229Z"/>
</mask>
<path d="M35 8.20312C20.2242 8.20312 8.20312 20.2242 8.20312 35C8.20312 49.7758 20.2242 61.7969 35 61.7969C49.7758 61.7969 61.7969 49.7758 61.7969 35C61.7969 20.2242 49.7758 8.20312 35 8.20312ZM36.3672 59.0229V56.3283C36.3672 55.5732 35.7551 54.9612 35 54.9612C34.2449 54.9612 33.6328 55.5732 33.6328 56.3283V59.0229C21.4511 58.3371 11.6629 48.5489 10.9771 36.3672H13.6719C14.4269 36.3672 15.039 35.7551 15.039 35C15.039 34.2449 14.4269 33.6328 13.6719 33.6328H10.9771C11.6629 21.4511 21.4511 11.6631 33.6328 10.9773V13.6719C33.6328 14.4269 34.2449 15.039 35 15.039C35.7551 15.039 36.3672 14.4269 36.3672 13.6719V10.9773C48.5489 11.6631 58.3371 21.4511 59.0229 33.6328H56.3282C55.5731 33.6328 54.961 34.2449 54.961 35C54.961 35.7551 55.5731 36.3672 56.3282 36.3672H59.0229C58.3371 48.5489 48.5489 58.3371 36.3672 59.0229Z" fill="#8EDAC2" stroke="white" stroke-width="1.6" mask="url(#path-3-inside-2)"/>
<mask id="path-4-inside-3" fill="white">
<path d="M23.1322 17.1775C23.3791 17.636 23.8499 17.8964 24.3366 17.8964C24.5555 17.8964 24.7777 17.8436 24.9839 17.7326C25.6487 17.3745 25.8973 16.5449 25.5392 15.8802C25.1813 15.2154 24.3522 14.9667 23.6872 15.3247C23.0225 15.6826 22.7737 16.5118 23.1317 17.1767L23.1322 17.1775Z"/>
</mask>
<path d="M23.1322 17.1775C23.3791 17.636 23.8499 17.8964 24.3366 17.8964C24.5555 17.8964 24.7777 17.8436 24.9839 17.7326C25.6487 17.3745 25.8973 16.5449 25.5392 15.8802C25.1813 15.2154 24.3522 14.9667 23.6872 15.3247C23.0225 15.6826 22.7737 16.5118 23.1317 17.1767L23.1322 17.1775Z" fill="#8EDAC2" stroke="white" stroke-width="1.6" mask="url(#path-4-inside-3)"/>
<mask id="path-5-inside-4" fill="white">
<path d="M15.8801 25.5393L15.881 25.5398C16.0871 25.6508 16.3089 25.7034 16.5276 25.7034C17.0144 25.7034 17.4855 25.4427 17.7325 24.984C18.0905 24.3191 17.8414 23.4898 17.1765 23.1319C16.5118 22.7741 15.6826 23.0226 15.3245 23.6874C14.9666 24.3522 15.2154 25.1814 15.8801 25.5393Z"/>
</mask>
<path d="M15.8801 25.5393L15.881 25.5398C16.0871 25.6508 16.3089 25.7034 16.5276 25.7034C17.0144 25.7034 17.4855 25.4427 17.7325 24.984C18.0905 24.3191 17.8414 23.4898 17.1765 23.1319C16.5118 22.7741 15.6826 23.0226 15.3245 23.6874C14.9666 24.3522 15.2154 25.1814 15.8801 25.5393Z" fill="#8EDAC2" stroke="white" stroke-width="1.6" mask="url(#path-5-inside-4)"/>
<mask id="path-6-inside-5" fill="white">
<path d="M15.8801 44.4609C15.2154 44.8188 14.9665 45.648 15.3246 46.3129C15.5715 46.7714 16.0428 47.0322 16.5295 47.0322C16.7484 47.0322 16.9703 46.9795 17.1765 46.8685L17.1773 46.8681C17.842 46.5102 18.0904 45.6813 17.7325 45.0164C17.3747 44.3514 16.5451 44.103 15.8801 44.4609Z"/>
</mask>
<path d="M15.8801 44.4609C15.2154 44.8188 14.9665 45.648 15.3246 46.3129C15.5715 46.7714 16.0428 47.0322 16.5295 47.0322C16.7484 47.0322 16.9703 46.9795 17.1765 46.8685L17.1773 46.8681C17.842 46.5102 18.0904 45.6813 17.7325 45.0164C17.3747 44.3514 16.5451 44.103 15.8801 44.4609Z" fill="#8EDAC2" stroke="white" stroke-width="1.6" mask="url(#path-6-inside-5)"/>
<mask id="path-7-inside-6" fill="white">
<path d="M24.9836 52.2675C24.3189 51.9096 23.4894 52.1588 23.1315 52.8235C22.7734 53.4884 23.0223 54.3176 23.687 54.6755C23.8932 54.7866 24.1151 54.8392 24.3339 54.8392C24.8207 54.8392 25.2919 54.5785 25.5388 54.1199L25.5392 54.1191C25.8975 53.4542 25.6485 52.6254 24.9836 52.2675Z"/>
</mask>
<path d="M24.9836 52.2675C24.3189 51.9096 23.4894 52.1588 23.1315 52.8235C22.7734 53.4884 23.0223 54.3176 23.687 54.6755C23.8932 54.7866 24.1151 54.8392 24.3339 54.8392C24.8207 54.8392 25.2919 54.5785 25.5388 54.1199L25.5392 54.1191C25.8975 53.4542 25.6485 52.6254 24.9836 52.2675Z" fill="#8EDAC2" stroke="white" stroke-width="1.6" mask="url(#path-7-inside-6)"/>
<mask id="path-8-inside-7" fill="white">
<path d="M46.8284 52.7542C46.4326 52.1111 45.591 51.9111 44.9477 52.3069C44.3046 52.7027 44.1045 53.5453 44.5003 54.1883C44.7585 54.6079 45.2068 54.8391 45.6659 54.8391C45.9104 54.8391 46.1578 54.7736 46.3812 54.636C47.0244 54.2402 47.2248 53.3982 46.829 52.755L46.8284 52.7542Z"/>
</mask>
<path d="M46.8284 52.7542C46.4326 52.1111 45.591 51.9111 44.9477 52.3069C44.3046 52.7027 44.1045 53.5453 44.5003 54.1883C44.7585 54.6079 45.2068 54.8391 45.6659 54.8391C45.9104 54.8391 46.1578 54.7736 46.3812 54.636C47.0244 54.2402 47.2248 53.3982 46.829 52.755L46.8284 52.7542Z" fill="#8EDAC2" stroke="white" stroke-width="1.6" mask="url(#path-8-inside-7)"/>
<mask id="path-9-inside-8" fill="white">
<path d="M54.12 44.4609L54.1191 44.4605C53.4544 44.1025 52.6256 44.3515 52.2676 45.0162C51.9096 45.6811 52.1587 46.5104 52.8236 46.8684C53.0298 46.9794 53.2517 47.032 53.4706 47.032C53.9573 47.032 54.4285 46.7713 54.6755 46.3127C55.0335 45.648 54.7847 44.8188 54.12 44.4609Z"/>
</mask>
<path d="M54.12 44.4609L54.1191 44.4605C53.4544 44.1025 52.6256 44.3515 52.2676 45.0162C51.9096 45.6811 52.1587 46.5104 52.8236 46.8684C53.0298 46.9794 53.2517 47.032 53.4706 47.032C53.9573 47.032 54.4285 46.7713 54.6755 46.3127C55.0335 45.648 54.7847 44.8188 54.12 44.4609Z" fill="#8EDAC2" stroke="white" stroke-width="1.6" mask="url(#path-9-inside-8)"/>
<mask id="path-10-inside-9" fill="white">
<path d="M52.8233 23.1316L52.8225 23.132C52.1577 23.49 51.9093 24.3189 52.2672 24.9838C52.5142 25.4423 52.9854 25.7029 53.4724 25.7029C53.6913 25.7029 53.9135 25.6501 54.1196 25.5391C54.7844 25.1812 55.0332 24.352 54.6751 23.6871C54.3173 23.0225 53.4883 22.7738 52.8233 23.1316Z"/>
</mask>
<path d="M52.8233 23.1316L52.8225 23.132C52.1577 23.49 51.9093 24.3189 52.2672 24.9838C52.5142 25.4423 52.9854 25.7029 53.4724 25.7029C53.6913 25.7029 53.9135 25.6501 54.1196 25.5391C54.7844 25.1812 55.0332 24.352 54.6751 23.6871C54.3173 23.0225 53.4883 22.7738 52.8233 23.1316Z" fill="#8EDAC2" stroke="white" stroke-width="1.6" mask="url(#path-10-inside-9)"/>
<mask id="path-11-inside-10" fill="white">
<path d="M46.3811 15.364C45.7379 14.9682 44.8959 15.1688 44.5001 15.8117L44.4996 15.8126C44.1038 16.4557 44.3046 17.2973 44.9476 17.6931C45.171 17.8305 45.4182 17.896 45.6625 17.896C46.1218 17.896 46.5705 17.6646 46.8287 17.2448C47.2247 16.6018 47.0241 15.7597 46.3811 15.364Z"/>
</mask>
<path d="M46.3811 15.364C45.7379 14.9682 44.8959 15.1688 44.5001 15.8117L44.4996 15.8126C44.1038 16.4557 44.3046 17.2973 44.9476 17.6931C45.171 17.8305 45.4182 17.896 45.6625 17.896C46.1218 17.896 46.5705 17.6646 46.8287 17.2448C47.2247 16.6018 47.0241 15.7597 46.3811 15.364Z" fill="#8EDAC2" stroke="white" stroke-width="1.6" mask="url(#path-11-inside-10)"/>
<mask id="path-12-inside-11" fill="white">
<path d="M37.366 36.3636C37.599 35.9615 37.7346 35.4967 37.7346 35.0001C37.7346 33.9921 37.183 33.1107 36.3674 32.6365V19.1409C36.3674 18.3858 35.7553 17.7737 35.0002 17.7737C34.2451 17.7737 33.6331 18.3858 33.6331 19.1409V32.6365C32.8175 33.1107 32.2659 33.9921 32.2659 35.0001C32.2659 36.5062 33.4942 37.7345 35.0002 37.7345L39.695 45.8661C39.9482 46.3047 40.4077 46.5499 40.8802 46.5499C41.1121 46.5499 41.3473 46.4908 41.5626 46.3665C42.2165 45.989 42.4406 45.1529 42.063 44.4989L37.366 36.3636Z"/>
</mask>
<path d="M37.366 36.3636C37.599 35.9615 37.7346 35.4967 37.7346 35.0001C37.7346 33.9921 37.183 33.1107 36.3674 32.6365V19.1409C36.3674 18.3858 35.7553 17.7737 35.0002 17.7737C34.2451 17.7737 33.6331 18.3858 33.6331 19.1409V32.6365C32.8175 33.1107 32.2659 33.9921 32.2659 35.0001C32.2659 36.5062 33.4942 37.7345 35.0002 37.7345L39.695 45.8661C39.9482 46.3047 40.4077 46.5499 40.8802 46.5499C41.1121 46.5499 41.3473 46.4908 41.5626 46.3665C42.2165 45.989 42.4406 45.1529 42.063 44.4989L37.366 36.3636Z" fill="#8EDAC2" stroke="white" stroke-width="1.6" mask="url(#path-12-inside-11)"/>
</svg>
