<svg width="70" height="55" viewBox="0 0 70 55" fill="none" xmlns="http://www.w3.org/2000/svg">
<g clip-path="url(#clip0)">
<mask id="path-2-inside-1" fill="white">
<path d="M18.0651 22.7241H6.77954V25.1612H18.0651V22.7241Z"/>
</mask>
<path d="M18.0651 22.7241H6.77954V25.1612H18.0651V22.7241Z" fill="#8EDAC2" stroke="white" stroke-width="1.2" mask="url(#path-2-inside-1)"/>
<mask id="path-3-inside-2" fill="white">
<path d="M23.7147 30.0354H6.77954V32.4725H23.7147V30.0354Z"/>
</mask>
<path d="M23.7147 30.0354H6.77954V32.4725H23.7147V30.0354Z" fill="#8EDAC2" stroke="white" stroke-width="1.2" mask="url(#path-3-inside-2)"/>
<mask id="path-4-inside-3" fill="white">
<path d="M47.4295 37.3467H6.77954V39.7838H47.4295V37.3467Z"/>
</mask>
<path d="M47.4295 37.3467H6.77954V39.7838H47.4295V37.3467Z" fill="#8EDAC2" stroke="white" stroke-width="1.2" mask="url(#path-4-inside-3)"/>
<mask id="path-5-inside-4" fill="white">
<path d="M13.5591 44.6432H6.77954V47.0803H13.5591V44.6432Z"/>
</mask>
<path d="M13.5591 44.6432H6.77954V47.0803H13.5591V44.6432Z" fill="#8EDAC2" stroke="white" stroke-width="1.2" mask="url(#path-5-inside-4)"/>
<mask id="path-6-inside-5" fill="white">
<path d="M24.8445 44.6432H18.0649V47.0803H24.8445V44.6432Z"/>
</mask>
<path d="M24.8445 44.6432H18.0649V47.0803H24.8445V44.6432Z" fill="#8EDAC2" stroke="white" stroke-width="1.2" mask="url(#path-6-inside-5)"/>
<mask id="path-7-inside-6" fill="white">
<path d="M36.1438 44.6432H29.3643V47.0803H36.1438V44.6432Z"/>
</mask>
<path d="M36.1438 44.6432H29.3643V47.0803H36.1438V44.6432Z" fill="#8EDAC2" stroke="white" stroke-width="1.2" mask="url(#path-7-inside-6)"/>
<mask id="path-8-inside-7" fill="white">
<path d="M46.2997 21.5055C45.4729 21.5055 44.715 21.7582 44.0536 22.1742C43.3646 21.7433 42.593 21.5055 41.78 21.5055C39.2859 21.5055 37.2603 23.69 37.2603 26.3797C37.2603 29.0695 39.2859 31.2539 41.78 31.2539C42.593 31.2539 43.3646 31.0162 44.0536 30.5852C44.715 31.0013 45.4729 31.2539 46.2997 31.2539C48.7938 31.2539 50.8194 29.0695 50.8194 26.3797C50.8194 23.69 48.7938 21.5055 46.2997 21.5055ZM42.3587 28.7277C42.1658 28.7871 41.9729 28.8168 41.78 28.8168C40.5398 28.8168 39.5201 27.7172 39.5201 26.3797C39.5201 25.0423 40.5398 23.9426 41.78 23.9426C41.9729 23.9426 42.1796 23.9872 42.3587 24.0318C42.0004 24.7302 41.78 25.5178 41.78 26.3797C41.78 27.2416 42.0004 28.0292 42.3587 28.7277ZM46.2997 28.8168C45.0595 28.8168 44.0398 27.7172 44.0398 26.3797C44.0398 25.0423 45.0595 23.9426 46.2997 23.9426C47.5399 23.9426 48.5596 25.0423 48.5596 26.3797C48.5596 27.7172 47.5399 28.8168 46.2997 28.8168Z"/>
</mask>
<path d="M46.2997 21.5055C45.4729 21.5055 44.715 21.7582 44.0536 22.1742C43.3646 21.7433 42.593 21.5055 41.78 21.5055C39.2859 21.5055 37.2603 23.69 37.2603 26.3797C37.2603 29.0695 39.2859 31.2539 41.78 31.2539C42.593 31.2539 43.3646 31.0162 44.0536 30.5852C44.715 31.0013 45.4729 31.2539 46.2997 31.2539C48.7938 31.2539 50.8194 29.0695 50.8194 26.3797C50.8194 23.69 48.7938 21.5055 46.2997 21.5055ZM42.3587 28.7277C42.1658 28.7871 41.9729 28.8168 41.78 28.8168C40.5398 28.8168 39.5201 27.7172 39.5201 26.3797C39.5201 25.0423 40.5398 23.9426 41.78 23.9426C41.9729 23.9426 42.1796 23.9872 42.3587 24.0318C42.0004 24.7302 41.78 25.5178 41.78 26.3797C41.78 27.2416 42.0004 28.0292 42.3587 28.7277ZM46.2997 28.8168C45.0595 28.8168 44.0398 27.7172 44.0398 26.3797C44.0398 25.0423 45.0595 23.9426 46.2997 23.9426C47.5399 23.9426 48.5596 25.0423 48.5596 26.3797C48.5596 27.7172 47.5399 28.8168 46.2997 28.8168Z" fill="#8EDAC2" stroke="white" stroke-width="1.2" mask="url(#path-8-inside-7)"/>
<mask id="path-9-inside-8" fill="white">
<path d="M67.6442 15.8734L20.2698 -0.264941C19.9391 -0.383824 17.2934 -1.32003 16.0257 2.11272L12.1261 15.4128H3.38979C1.51576 15.4276 0 17.0623 0 19.0684V50.7359C0 52.7569 1.51576 54.3916 3.38979 54.3916H53.0791C54.2642 54.3916 55.2977 53.7377 55.904 52.7421C55.904 52.7421 57.4335 53.2027 57.778 53.2027C59.2662 53.2027 60.5615 52.1774 61.0024 50.6468L69.8489 20.4504C70.1245 19.5291 70.3175 16.6462 67.6442 15.8734ZM16.8111 7.49218L42.5 15.5L25.0789 15.4128L15.447 12.1286L16.8111 7.49218ZM14.7718 14.4617L19 15.5L14.4962 15.4276L14.7718 14.4617ZM54.2091 50.7359H54.1953C54.1953 51.4046 53.6854 51.9545 53.0654 51.9545H3.38979C2.76971 51.9545 2.25986 51.4046 2.25986 50.7359V19.0684C2.25986 18.3997 2.76971 17.8499 3.38979 17.8499H53.0791C53.6992 17.8499 54.2091 18.3997 54.2091 19.0684V50.7359ZM58.8528 49.9186C58.6737 50.5427 58.0122 50.9142 57.4335 50.7062L56.4551 50.3793V28.6682L64.2958 31.3431L58.8528 49.9186ZM64.971 29.01L56.4551 26.1122V21.0003L66.3351 24.3587L64.971 29.01ZM67.6993 19.7223L67.0241 22.0405L56.4 18.4294C56.1107 16.7205 54.7327 15.4276 53.0791 15.4276H47.5811L17.4864 5.17396L18.1616 2.85574C18.3407 2.2316 18.9883 1.86009 19.5809 2.06814L66.9552 18.1917C67.906 18.4592 67.782 19.4102 67.6993 19.7223Z"/>
</mask>
<path d="M67.6442 15.8734L20.2698 -0.264941C19.9391 -0.383824 17.2934 -1.32003 16.0257 2.11272L12.1261 15.4128H3.38979C1.51576 15.4276 0 17.0623 0 19.0684V50.7359C0 52.7569 1.51576 54.3916 3.38979 54.3916H53.0791C54.2642 54.3916 55.2977 53.7377 55.904 52.7421C55.904 52.7421 57.4335 53.2027 57.778 53.2027C59.2662 53.2027 60.5615 52.1774 61.0024 50.6468L69.8489 20.4504C70.1245 19.5291 70.3175 16.6462 67.6442 15.8734ZM16.8111 7.49218L42.5 15.5L25.0789 15.4128L15.447 12.1286L16.8111 7.49218ZM14.7718 14.4617L19 15.5L14.4962 15.4276L14.7718 14.4617ZM54.2091 50.7359H54.1953C54.1953 51.4046 53.6854 51.9545 53.0654 51.9545H3.38979C2.76971 51.9545 2.25986 51.4046 2.25986 50.7359V19.0684C2.25986 18.3997 2.76971 17.8499 3.38979 17.8499H53.0791C53.6992 17.8499 54.2091 18.3997 54.2091 19.0684V50.7359ZM58.8528 49.9186C58.6737 50.5427 58.0122 50.9142 57.4335 50.7062L56.4551 50.3793V28.6682L64.2958 31.3431L58.8528 49.9186ZM64.971 29.01L56.4551 26.1122V21.0003L66.3351 24.3587L64.971 29.01ZM67.6993 19.7223L67.0241 22.0405L56.4 18.4294C56.1107 16.7205 54.7327 15.4276 53.0791 15.4276H47.5811L17.4864 5.17396L18.1616 2.85574C18.3407 2.2316 18.9883 1.86009 19.5809 2.06814L66.9552 18.1917C67.906 18.4592 67.782 19.4102 67.6993 19.7223Z" fill="#8EDAC2"/>
<path d="M67.6442 15.8734L67.4507 16.4414L67.4641 16.4459L67.4776 16.4498L67.6442 15.8734ZM20.2698 -0.264941L20.0668 0.299765L20.0764 0.303009L20.2698 -0.264941ZM16.0257 2.11272L15.4629 1.90486L15.4557 1.92416L15.4499 1.94391L16.0257 2.11272ZM12.1261 15.4128V16.0128H12.5754L12.7018 15.5816L12.1261 15.4128ZM3.38979 15.4128V14.8128L3.38503 14.8128L3.38979 15.4128ZM55.904 52.7421L56.077 52.1676L55.6328 52.0338L55.3915 52.43L55.904 52.7421ZM61.0024 50.6468L60.4266 50.4781L60.4259 50.4807L61.0024 50.6468ZM69.8489 20.4504L69.2741 20.2785L69.2731 20.2818L69.8489 20.4504ZM16.8111 7.49218L16.9897 6.91937L16.4076 6.73792L16.2355 7.32282L16.8111 7.49218ZM42.5 15.5L42.497 16.1C42.7941 16.1015 43.0475 15.8854 43.0929 15.5918C43.1384 15.2982 42.9622 15.0156 42.6786 14.9272L42.5 15.5ZM25.0789 15.4128L24.8853 15.9807L24.978 16.0123L25.0759 16.0128L25.0789 15.4128ZM15.447 12.1286L14.8714 11.9593L14.709 12.5109L15.2533 12.6965L15.447 12.1286ZM14.7718 14.4617L14.9148 13.879L14.3534 13.7411L14.1948 14.2971L14.7718 14.4617ZM19 15.5L18.9904 16.0999C19.2957 16.1048 19.556 15.8797 19.5951 15.5768C19.6342 15.274 19.4396 14.9901 19.1431 14.9173L19 15.5ZM14.4962 15.4276L13.9192 15.263L13.7046 16.015L14.4865 16.0276L14.4962 15.4276ZM54.2091 50.7359V51.3359H54.8091V50.7359H54.2091ZM54.1953 50.7359V50.1359H53.5953V50.7359H54.1953ZM58.8528 49.9186L58.277 49.7499L58.2761 49.7531L58.8528 49.9186ZM57.4335 50.7062L57.6365 50.1414L57.6237 50.1371L57.4335 50.7062ZM56.4551 50.3793H55.8551V50.8114L56.265 50.9483L56.4551 50.3793ZM56.4551 28.6682L56.6489 28.1004L55.8551 27.8296V28.6682H56.4551ZM64.2958 31.3431L64.8715 31.5118L65.033 30.9607L64.4895 30.7752L64.2958 31.3431ZM64.971 29.01L64.7777 29.578L65.3705 29.7798L65.5467 29.1789L64.971 29.01ZM56.4551 26.1122H55.8551V26.5419L56.2619 26.6803L56.4551 26.1122ZM56.4551 21.0003L56.6482 20.4322L55.8551 20.1626V21.0003H56.4551ZM66.3351 24.3587L66.9109 24.5276L67.0727 23.9757L66.5282 23.7906L66.3351 24.3587ZM67.6993 19.7223L68.2754 19.8901L68.2774 19.883L68.2793 19.8759L67.6993 19.7223ZM67.0241 22.0405L66.831 22.6086L67.4248 22.8104L67.6002 22.2083L67.0241 22.0405ZM56.4 18.4294L55.8084 18.5296L55.8682 18.8824L56.2069 18.9975L56.4 18.4294ZM47.5811 15.4276L47.3876 15.9956L47.4817 16.0276H47.5811V15.4276ZM17.4864 5.17396L16.9103 5.00618L16.7499 5.55691L17.2928 5.7419L17.4864 5.17396ZM18.1616 2.85574L18.7376 3.02353L18.7383 3.02127L18.1616 2.85574ZM19.5809 2.06814L19.3821 2.63428L19.3875 2.63614L19.5809 2.06814ZM66.9552 18.1917L66.7619 18.7597L66.7772 18.7649L66.7927 18.7692L66.9552 18.1917ZM67.8377 15.3055L20.4633 -0.832891L20.0764 0.303009L67.4507 16.4414L67.8377 15.3055ZM20.4728 -0.829567C20.2855 -0.896895 19.4081 -1.21114 18.3763 -0.995257C17.2891 -0.767794 16.1594 0.0186603 15.4629 1.90486L16.5886 2.32058C17.1597 0.774032 17.9868 0.312214 18.622 0.179312C19.3126 0.0348305 19.9234 0.24813 20.0669 0.299686L20.4728 -0.829567ZM15.4499 1.94391L11.5503 15.244L12.7018 15.5816L16.6015 2.28154L15.4499 1.94391ZM12.1261 14.8128H3.38979V16.0128H12.1261V14.8128ZM3.38503 14.8128C1.14412 14.8306 -0.6 16.7714 -0.6 19.0684H0.6C0.6 17.3531 1.8874 16.0247 3.39455 16.0128L3.38503 14.8128ZM-0.6 19.0684V50.7359H0.6V19.0684H-0.6ZM-0.6 50.7359C-0.6 53.0448 1.14253 54.9916 3.38979 54.9916V53.7916C1.88899 53.7916 0.6 52.469 0.6 50.7359H-0.6ZM3.38979 54.9916H53.0791V53.7916H3.38979V54.9916ZM53.0791 54.9916C54.4971 54.9916 55.7141 54.2075 56.4164 53.0541L55.3915 52.43C54.8812 53.2679 54.0313 53.7916 53.0791 53.7916V54.9916ZM55.904 52.7421C55.7309 53.3166 55.7309 53.3166 55.731 53.3166C55.731 53.3166 55.731 53.3166 55.7311 53.3166C55.7311 53.3166 55.7312 53.3167 55.7313 53.3167C55.7316 53.3168 55.7319 53.3169 55.7323 53.317C55.7332 53.3172 55.7343 53.3176 55.7359 53.3181C55.739 53.319 55.7435 53.3204 55.7494 53.3221C55.7611 53.3256 55.7781 53.3307 55.7998 53.3371C55.8433 53.35 55.9055 53.3683 55.9811 53.3903C56.1321 53.4341 56.3377 53.4927 56.555 53.5516C56.7713 53.6101 57.0041 53.6702 57.2081 53.7161C57.388 53.7566 57.6138 53.8027 57.778 53.8027V52.6027C57.7871 52.6027 57.7661 52.6027 57.6982 52.5913C57.6381 52.5812 57.5617 52.5657 57.4716 52.5454C57.2919 52.505 57.0777 52.4499 56.8686 52.3933C56.6604 52.3369 56.4622 52.2804 56.3156 52.2378C56.2424 52.2166 56.1824 52.1989 56.1409 52.1866C56.1201 52.1805 56.1039 52.1756 56.0931 52.1724C56.0876 52.1708 56.0835 52.1695 56.0808 52.1687C56.0795 52.1683 56.0785 52.168 56.0778 52.1678C56.0775 52.1677 56.0773 52.1676 56.0771 52.1676C56.0771 52.1676 56.077 52.1676 56.077 52.1676C56.077 52.1676 56.077 52.1676 56.077 52.1676C56.077 52.1676 56.077 52.1676 55.904 52.7421ZM57.778 53.8027C59.5581 53.8027 61.071 52.576 61.579 50.8129L60.4259 50.4807C60.0519 51.7787 58.9742 52.6027 57.778 52.6027V53.8027ZM61.5782 50.8154L70.4247 20.6191L69.2731 20.2818L60.4266 50.4781L61.5782 50.8154ZM70.4238 20.6224C70.5878 20.0739 70.717 19.0078 70.4317 17.95C70.1366 16.8557 69.3865 15.7525 67.8108 15.297L67.4776 16.4498C68.5752 16.7671 69.0652 17.4918 69.2731 18.2624C69.4908 19.0696 69.3856 19.9056 69.2741 20.2785L70.4238 20.6224ZM16.6326 8.065L42.3214 16.0728L42.6786 14.9272L16.9897 6.91937L16.6326 8.065ZM42.503 14.9L25.0819 14.8128L25.0759 16.0128L42.497 16.1L42.503 14.9ZM25.2726 14.8449L15.6406 11.5607L15.2533 12.6965L24.8853 15.9807L25.2726 14.8449ZM16.0226 12.298L17.3867 7.66154L16.2355 7.32282L14.8714 11.9593L16.0226 12.298ZM14.6287 15.0444L18.8569 16.0827L19.1431 14.9173L14.9148 13.879L14.6287 15.0444ZM19.0096 14.9001L14.5058 14.8277L14.4865 16.0276L18.9904 16.0999L19.0096 14.9001ZM15.0731 15.5923L15.3487 14.6263L14.1948 14.2971L13.9192 15.263L15.0731 15.5923ZM54.2091 50.1359H54.1953V51.3359H54.2091V50.1359ZM53.5953 50.7359C53.5953 51.1167 53.3122 51.3545 53.0654 51.3545V52.5545C54.0587 52.5545 54.7953 51.6925 54.7953 50.7359H53.5953ZM53.0654 51.3545H3.38979V52.5545H53.0654V51.3545ZM3.38979 51.3545C3.14293 51.3545 2.85986 51.1167 2.85986 50.7359H1.65986C1.65986 51.6925 2.39648 52.5545 3.38979 52.5545V51.3545ZM2.85986 50.7359V19.0684H1.65986V50.7359H2.85986ZM2.85986 19.0684C2.85986 18.6876 3.14293 18.4499 3.38979 18.4499V17.2499C2.39648 17.2499 1.65986 18.1118 1.65986 19.0684H2.85986ZM3.38979 18.4499H53.0791V17.2499H3.38979V18.4499ZM53.0791 18.4499C53.326 18.4499 53.6091 18.6876 53.6091 19.0684H54.8091C54.8091 18.1118 54.0724 17.2499 53.0791 17.2499V18.4499ZM53.6091 19.0684V50.7359H54.8091V19.0684H53.6091ZM58.2761 49.7531C58.1811 50.084 57.8507 50.2186 57.6365 50.1416L57.2305 51.2708C58.1737 51.6099 59.1662 51.0015 59.4295 50.0841L58.2761 49.7531ZM57.6237 50.1371L56.6453 49.8102L56.265 50.9483L57.2433 51.2753L57.6237 50.1371ZM57.0551 50.3793V28.6682H55.8551V50.3793H57.0551ZM56.2614 29.2361L64.102 31.911L64.4895 30.7752L56.6489 28.1004L56.2614 29.2361ZM63.72 31.1744L58.277 49.7499L59.4286 50.0873L64.8715 31.5118L63.72 31.1744ZM65.1642 28.442L56.6484 25.5442L56.2619 26.6803L64.7777 29.578L65.1642 28.442ZM57.0551 26.1122V21.0003H55.8551V26.1122H57.0551ZM56.262 21.5684L66.142 24.9268L66.5282 23.7906L56.6482 20.4322L56.262 21.5684ZM65.7594 24.1899L64.3952 28.8412L65.5467 29.1789L66.9109 24.5276L65.7594 24.1899ZM67.1233 19.5545L66.4481 21.8727L67.6002 22.2083L68.2754 19.8901L67.1233 19.5545ZM67.2172 21.4724L56.5931 17.8613L56.2069 18.9975L66.831 22.6086L67.2172 21.4724ZM56.9916 18.3293C56.6603 16.3728 55.0653 14.8276 53.0791 14.8276V16.0276C54.4001 16.0276 55.561 17.0681 55.8084 18.5296L56.9916 18.3293ZM53.0791 14.8276H47.5811V16.0276H53.0791V14.8276ZM47.7746 14.8597L17.6799 4.60602L17.2928 5.7419L47.3876 15.9956L47.7746 14.8597ZM18.0624 5.34175L18.7376 3.02352L17.5855 2.68796L16.9103 5.00618L18.0624 5.34175ZM18.7383 3.02127C18.8334 2.68981 19.1522 2.55355 19.3821 2.63426L19.7796 1.50202C18.8244 1.16663 17.848 1.7734 17.5848 2.69022L18.7383 3.02127ZM19.3875 2.63614L66.7619 18.7597L67.1485 17.6237L19.7742 1.50014L19.3875 2.63614ZM66.7927 18.7692C66.9337 18.8089 67.0039 18.8637 67.0421 18.9054C67.0826 18.9495 67.1132 19.0076 67.1327 19.0857C67.176 19.2589 67.1474 19.4628 67.1193 19.5686L68.2793 19.8759C68.334 19.6697 68.4087 19.2421 68.2969 18.7948C68.1737 18.3017 67.825 17.8131 67.1177 17.6141L66.7927 18.7692Z" fill="white" mask="url(#path-9-inside-8)"/>
</g>
<defs>
<clipPath id="clip0">
<rect width="70" height="55" fill="white"/>
</clipPath>
</defs>
</svg>
