<svg width="70" height="70" viewBox="0 0 70 70" fill="none" xmlns="http://www.w3.org/2000/svg">
<g clip-path="url(#clip0)">
<mask id="path-1-inside-1" fill="white">
<path d="M69.4239 8.83481C69.3823 8.79571 61.1599 0.954202 61.1599 0.954202C60.8456 0.6526 60.5205 0.340881 59.9135 0.340881H26.8111C25.8442 0.340881 25.0576 1.12742 25.0576 2.0943V7.47869L13.3907 9.47862C12.4555 9.64268 11.8266 10.5376 11.9886 11.4718L12.5807 14.9243C8.78857 16.2004 4.89523 17.5159 1.1367 18.866C0.248571 19.1907 -0.217503 20.1782 0.0994107 21.0717L7.57588 41.8551C7.72627 42.2733 8.12043 42.5338 8.54084 42.5338C8.65595 42.5338 8.77326 42.5142 8.88783 42.4729C9.42076 42.2813 9.69734 41.6939 9.50566 41.161L2.1398 20.6849C5.68082 19.4171 9.34789 18.1763 12.9317 16.97L16.4551 37.5113L20.5093 61.168C20.6558 62.0031 21.3898 62.5973 22.2183 62.5973C22.3121 62.5973 22.4073 62.5896 22.5027 62.5739L33.4834 60.6895L42.0639 59.2187L29.1588 63.8571L18.9822 67.5161L11.0787 45.5333C10.8872 45.0003 10.3 44.7238 9.76693 44.9153C9.234 45.1068 8.95742 45.6942 9.14896 46.2271L17.1645 68.5224C17.4209 69.2235 18.085 69.6593 18.7871 69.6593C18.9811 69.6593 19.1781 69.626 19.3701 69.5558L29.8524 65.787L53.6543 57.232L58.2015 56.4526H68.2463C69.2132 56.4526 69.9999 55.6643 69.9999 54.6952V9.99022C70 9.37649 69.667 9.0634 69.4239 8.83481ZM66.7071 9.07762H61.5761L61.4489 9.07817C61.2033 9.07981 60.6281 9.08405 60.4822 8.93912C60.4486 8.90563 60.4092 8.79379 60.4092 8.58612L60.3973 3.06063L66.7071 9.07762ZM67.9492 54.4015H27.1083V34.4178C27.1083 33.8515 26.6492 33.3924 26.0829 33.3924C25.5167 33.3924 25.0576 33.8515 25.0576 34.4178V54.6949C25.0576 55.6638 25.8442 56.4523 26.8111 56.4523H46.0628L33.1367 58.668L22.4751 60.4977L18.4763 37.1646L14.0645 11.4437L25.0574 9.55928V29.6599C25.0574 30.2262 25.5165 30.6853 26.0828 30.6853C26.6491 30.6853 27.1082 30.2262 27.1082 29.6599V2.39153H58.345L58.3584 8.58844C58.3584 9.33957 58.5869 9.94715 59.0374 10.3945C59.7296 11.0818 60.7081 11.1296 61.3155 11.1296C61.3677 11.1296 61.4172 11.1292 61.4636 11.1289L67.9492 11.1285V54.4015Z"/>
</mask>
<path d="M69.4239 8.83481C69.3823 8.79571 61.1599 0.954202 61.1599 0.954202C60.8456 0.6526 60.5205 0.340881 59.9135 0.340881H26.8111C25.8442 0.340881 25.0576 1.12742 25.0576 2.0943V7.47869L13.3907 9.47862C12.4555 9.64268 11.8266 10.5376 11.9886 11.4718L12.5807 14.9243C8.78857 16.2004 4.89523 17.5159 1.1367 18.866C0.248571 19.1907 -0.217503 20.1782 0.0994107 21.0717L7.57588 41.8551C7.72627 42.2733 8.12043 42.5338 8.54084 42.5338C8.65595 42.5338 8.77326 42.5142 8.88783 42.4729C9.42076 42.2813 9.69734 41.6939 9.50566 41.161L2.1398 20.6849C5.68082 19.4171 9.34789 18.1763 12.9317 16.97L16.4551 37.5113L20.5093 61.168C20.6558 62.0031 21.3898 62.5973 22.2183 62.5973C22.3121 62.5973 22.4073 62.5896 22.5027 62.5739L33.4834 60.6895L42.0639 59.2187L29.1588 63.8571L18.9822 67.5161L11.0787 45.5333C10.8872 45.0003 10.3 44.7238 9.76693 44.9153C9.234 45.1068 8.95742 45.6942 9.14896 46.2271L17.1645 68.5224C17.4209 69.2235 18.085 69.6593 18.7871 69.6593C18.9811 69.6593 19.1781 69.626 19.3701 69.5558L29.8524 65.787L53.6543 57.232L58.2015 56.4526H68.2463C69.2132 56.4526 69.9999 55.6643 69.9999 54.6952V9.99022C70 9.37649 69.667 9.0634 69.4239 8.83481ZM66.7071 9.07762H61.5761L61.4489 9.07817C61.2033 9.07981 60.6281 9.08405 60.4822 8.93912C60.4486 8.90563 60.4092 8.79379 60.4092 8.58612L60.3973 3.06063L66.7071 9.07762ZM67.9492 54.4015H27.1083V34.4178C27.1083 33.8515 26.6492 33.3924 26.0829 33.3924C25.5167 33.3924 25.0576 33.8515 25.0576 34.4178V54.6949C25.0576 55.6638 25.8442 56.4523 26.8111 56.4523H46.0628L33.1367 58.668L22.4751 60.4977L18.4763 37.1646L14.0645 11.4437L25.0574 9.55928V29.6599C25.0574 30.2262 25.5165 30.6853 26.0828 30.6853C26.6491 30.6853 27.1082 30.2262 27.1082 29.6599V2.39153H58.345L58.3584 8.58844C58.3584 9.33957 58.5869 9.94715 59.0374 10.3945C59.7296 11.0818 60.7081 11.1296 61.3155 11.1296C61.3677 11.1296 61.4172 11.1292 61.4636 11.1289L67.9492 11.1285V54.4015Z" fill="#8EDAC2" stroke="white" stroke-width="0.8" mask="url(#path-1-inside-1)"/>
<mask id="path-2-inside-2" fill="white">
<path d="M32.051 16.2626C32.051 16.8289 32.5101 17.288 33.0764 17.288H62.3938C62.9601 17.288 63.4192 16.8289 63.4192 16.2626C63.4192 15.6963 62.9601 15.2372 62.3938 15.2372H33.0764C32.5101 15.2372 32.051 15.6963 32.051 16.2626Z"/>
</mask>
<path d="M32.051 16.2626C32.051 16.8289 32.5101 17.288 33.0764 17.288H62.3938C62.9601 17.288 63.4192 16.8289 63.4192 16.2626C63.4192 15.6963 62.9601 15.2372 62.3938 15.2372H33.0764C32.5101 15.2372 32.051 15.6963 32.051 16.2626Z" fill="#8EDAC2" stroke="white" stroke-width="0.8" mask="url(#path-2-inside-2)"/>
<mask id="path-3-inside-3" fill="white">
<path d="M62.3938 22.5219H33.0764C32.5101 22.5219 32.051 22.981 32.051 23.5472C32.051 24.1135 32.5101 24.5726 33.0764 24.5726H62.3938C62.9601 24.5726 63.4192 24.1135 63.4192 23.5472C63.4192 22.981 62.9601 22.5219 62.3938 22.5219Z"/>
</mask>
<path d="M62.3938 22.5219H33.0764C32.5101 22.5219 32.051 22.981 32.051 23.5472C32.051 24.1135 32.5101 24.5726 33.0764 24.5726H62.3938C62.9601 24.5726 63.4192 24.1135 63.4192 23.5472C63.4192 22.981 62.9601 22.5219 62.3938 22.5219Z" fill="#8EDAC2" stroke="white" stroke-width="0.8" mask="url(#path-3-inside-3)"/>
<mask id="path-4-inside-4" fill="white">
<path d="M62.3938 29.8065H33.0764C32.5101 29.8065 32.051 30.2656 32.051 30.8318C32.051 31.3981 32.5101 31.8572 33.0764 31.8572H62.3938C62.9601 31.8572 63.4192 31.3981 63.4192 30.8318C63.4192 30.2656 62.9601 29.8065 62.3938 29.8065Z"/>
</mask>
<path d="M62.3938 29.8065H33.0764C32.5101 29.8065 32.051 30.2656 32.051 30.8318C32.051 31.3981 32.5101 31.8572 33.0764 31.8572H62.3938C62.9601 31.8572 63.4192 31.3981 63.4192 30.8318C63.4192 30.2656 62.9601 29.8065 62.3938 29.8065Z" fill="#8EDAC2" stroke="white" stroke-width="0.8" mask="url(#path-4-inside-4)"/>
<mask id="path-5-inside-5" fill="white">
<path d="M62.3938 37.0911H33.0764C32.5101 37.0911 32.051 37.5502 32.051 38.1165C32.051 38.6828 32.5101 39.1419 33.0764 39.1419H62.3938C62.9601 39.1419 63.4192 38.6828 63.4192 38.1165C63.4192 37.5502 62.9601 37.0911 62.3938 37.0911Z"/>
</mask>
<path d="M62.3938 37.0911H33.0764C32.5101 37.0911 32.051 37.5502 32.051 38.1165C32.051 38.6828 32.5101 39.1419 33.0764 39.1419H62.3938C62.9601 39.1419 63.4192 38.6828 63.4192 38.1165C63.4192 37.5502 62.9601 37.0911 62.3938 37.0911Z" fill="#8EDAC2" stroke="white" stroke-width="0.8" mask="url(#path-5-inside-5)"/>
<mask id="path-6-inside-6" fill="white">
<path d="M62.3938 44.3759H33.0764C32.5101 44.3759 32.051 44.835 32.051 45.4013C32.051 45.9676 32.5101 46.4267 33.0764 46.4267H62.3938C62.9601 46.4267 63.4192 45.9676 63.4192 45.4013C63.4192 44.835 62.9601 44.3759 62.3938 44.3759Z"/>
</mask>
<path d="M62.3938 44.3759H33.0764C32.5101 44.3759 32.051 44.835 32.051 45.4013C32.051 45.9676 32.5101 46.4267 33.0764 46.4267H62.3938C62.9601 46.4267 63.4192 45.9676 63.4192 45.4013C63.4192 44.835 62.9601 44.3759 62.3938 44.3759Z" fill="#8EDAC2" stroke="white" stroke-width="0.8" mask="url(#path-6-inside-6)"/>
</g>
<defs>
<clipPath id="clip0">
<rect width="70" height="70" fill="white"/>
</clipPath>
</defs>
</svg>
