<svg width="70" height="70" viewBox="0 0 70 70" fill="none" xmlns="http://www.w3.org/2000/svg">
<mask id="path-2-inside-1" fill="white">
<path d="M63.712 60.8119L56.368 51.3703C58.7477 50.6593 60.8034 49.1374 62.178 47.069C63.9075 44.0795 63.1254 40.431 62.3687 36.9069C61.9111 35.0965 61.6373 33.2446 61.5516 31.3793C61.637 29.5124 61.9107 27.6588 62.3687 25.8469C63.1206 22.3203 63.9075 18.6743 62.178 15.6897C60.387 12.5952 56.7808 11.4498 53.2929 10.3443C51.5566 9.86593 49.8751 9.20741 48.2758 8.37948C46.8245 7.4381 45.477 6.34586 44.2556 5.12086C41.668 2.71914 38.7341 0 34.9999 0C31.2658 0 28.3318 2.71914 25.743 5.11966C24.5221 6.34496 23.1749 7.43765 21.7241 8.37948C20.1249 9.20575 18.4439 9.86261 16.7082 10.3395C13.2203 11.445 9.61406 12.5903 7.82302 15.6848C6.09354 18.6743 6.87561 22.3228 7.63233 25.8469C8.0899 27.6589 8.36326 29.5124 8.4482 31.3793C8.36281 33.2462 8.08914 35.0999 7.63113 36.9117C6.87923 40.4383 6.09233 44.0843 7.82182 47.069C9.19828 49.1382 11.2562 50.6596 13.6379 51.3691L6.28785 60.8107C5.87871 61.3369 5.97361 62.0951 6.49996 62.5043C6.75281 62.7008 7.07324 62.7888 7.39096 62.749L16.0203 61.6712L18.1504 69.125C18.2752 69.5619 18.6349 69.8917 19.081 69.9783C19.1565 69.9926 19.2333 70 19.3103 70C19.6829 70.0003 20.0349 69.8283 20.2637 69.5341L27.971 59.6207C29.8676 61.4671 32.3589 62.5794 34.9999 62.7586C37.6409 62.5794 40.1322 61.4671 42.0289 59.6207L49.7361 69.5305C49.9642 69.8261 50.3162 69.9994 50.6896 70C50.7665 70 50.8433 69.9926 50.9189 69.9783C51.365 69.8917 51.7246 69.5619 51.8494 69.125L53.9796 61.6724L62.6089 62.7502C63.2703 62.8331 63.8737 62.3643 63.9567 61.7029C63.9965 61.3852 63.9086 61.0647 63.712 60.8119ZM19.8172 66.1753L18.0563 60.0129C17.8926 59.4413 17.3368 59.0741 16.7468 59.1476L9.9882 59.9924L16.0456 52.2055L16.713 52.4191C18.447 52.8963 20.1264 53.5532 21.7241 54.3791C23.1754 55.3205 24.5229 56.4128 25.7442 57.6378L26.1594 58.0216L19.8172 66.1753ZM34.9999 60.3448C32.212 60.3448 29.867 58.1724 27.3832 55.8697C26.0319 54.5196 24.5393 53.3192 22.931 52.2888C21.1811 51.3728 19.3391 50.6446 17.436 50.1164C14.2461 49.1038 11.2325 48.1479 9.90975 45.8621C8.64734 43.6788 9.29906 40.6362 9.99061 37.4138C10.4883 35.4376 10.7804 33.4155 10.862 31.3793C10.7808 29.3431 10.4892 27.321 9.99182 25.3448C9.30027 22.1236 8.64854 19.081 9.91096 16.8966C11.2385 14.6107 14.2473 13.6548 17.4372 12.6422C19.34 12.1139 21.1814 11.3857 22.931 10.4698C24.5388 9.43944 26.0312 8.23888 27.382 6.88897C29.867 4.58621 32.212 2.41379 34.9999 2.41379C37.7879 2.41379 40.1329 4.58621 42.6166 6.88897C43.9679 8.23903 45.4605 9.43944 47.0689 10.4698C48.8187 11.3859 50.6608 12.1141 52.5639 12.6422C55.7537 13.6548 58.7673 14.6107 60.0901 16.8966C61.3525 19.0798 60.7008 22.1224 60.0092 25.3448C59.5115 27.321 59.2195 29.3431 59.1379 31.3793C59.219 33.4155 59.5106 35.4376 60.008 37.4138C60.6996 40.635 61.3513 43.6776 60.0889 45.8621C58.7613 48.1479 55.7525 49.1038 52.5627 50.1164C50.6599 50.6447 48.8184 51.3729 47.0689 52.2888C45.461 53.3192 43.9687 54.5197 42.6179 55.8697C40.1329 58.1724 37.7879 60.3448 34.9999 60.3448ZM53.2591 59.1476C52.669 59.0741 52.1133 59.4413 51.9496 60.0129L50.1827 66.1753L43.8416 58.0228L44.2568 57.639C45.4777 56.4137 46.8249 55.321 48.2758 54.3791C49.8749 53.5529 51.556 52.896 53.2916 52.4191L53.9591 52.2055L60.0177 59.9924L53.2591 59.1476Z"/>
</mask>
<path d="M63.712 60.8119L56.368 51.3703C58.7477 50.6593 60.8034 49.1374 62.178 47.069C63.9075 44.0795 63.1254 40.431 62.3687 36.9069C61.9111 35.0965 61.6373 33.2446 61.5516 31.3793C61.637 29.5124 61.9107 27.6588 62.3687 25.8469C63.1206 22.3203 63.9075 18.6743 62.178 15.6897C60.387 12.5952 56.7808 11.4498 53.2929 10.3443C51.5566 9.86593 49.8751 9.20741 48.2758 8.37948C46.8245 7.4381 45.477 6.34586 44.2556 5.12086C41.668 2.71914 38.7341 0 34.9999 0C31.2658 0 28.3318 2.71914 25.743 5.11966C24.5221 6.34496 23.1749 7.43765 21.7241 8.37948C20.1249 9.20575 18.4439 9.86261 16.7082 10.3395C13.2203 11.445 9.61406 12.5903 7.82302 15.6848C6.09354 18.6743 6.87561 22.3228 7.63233 25.8469C8.0899 27.6589 8.36326 29.5124 8.4482 31.3793C8.36281 33.2462 8.08914 35.0999 7.63113 36.9117C6.87923 40.4383 6.09233 44.0843 7.82182 47.069C9.19828 49.1382 11.2562 50.6596 13.6379 51.3691L6.28785 60.8107C5.87871 61.3369 5.97361 62.0951 6.49996 62.5043C6.75281 62.7008 7.07324 62.7888 7.39096 62.749L16.0203 61.6712L18.1504 69.125C18.2752 69.5619 18.6349 69.8917 19.081 69.9783C19.1565 69.9926 19.2333 70 19.3103 70C19.6829 70.0003 20.0349 69.8283 20.2637 69.5341L27.971 59.6207C29.8676 61.4671 32.3589 62.5794 34.9999 62.7586C37.6409 62.5794 40.1322 61.4671 42.0289 59.6207L49.7361 69.5305C49.9642 69.8261 50.3162 69.9994 50.6896 70C50.7665 70 50.8433 69.9926 50.9189 69.9783C51.365 69.8917 51.7246 69.5619 51.8494 69.125L53.9796 61.6724L62.6089 62.7502C63.2703 62.8331 63.8737 62.3643 63.9567 61.7029C63.9965 61.3852 63.9086 61.0647 63.712 60.8119ZM19.8172 66.1753L18.0563 60.0129C17.8926 59.4413 17.3368 59.0741 16.7468 59.1476L9.9882 59.9924L16.0456 52.2055L16.713 52.4191C18.447 52.8963 20.1264 53.5532 21.7241 54.3791C23.1754 55.3205 24.5229 56.4128 25.7442 57.6378L26.1594 58.0216L19.8172 66.1753ZM34.9999 60.3448C32.212 60.3448 29.867 58.1724 27.3832 55.8697C26.0319 54.5196 24.5393 53.3192 22.931 52.2888C21.1811 51.3728 19.3391 50.6446 17.436 50.1164C14.2461 49.1038 11.2325 48.1479 9.90975 45.8621C8.64734 43.6788 9.29906 40.6362 9.99061 37.4138C10.4883 35.4376 10.7804 33.4155 10.862 31.3793C10.7808 29.3431 10.4892 27.321 9.99182 25.3448C9.30027 22.1236 8.64854 19.081 9.91096 16.8966C11.2385 14.6107 14.2473 13.6548 17.4372 12.6422C19.34 12.1139 21.1814 11.3857 22.931 10.4698C24.5388 9.43944 26.0312 8.23888 27.382 6.88897C29.867 4.58621 32.212 2.41379 34.9999 2.41379C37.7879 2.41379 40.1329 4.58621 42.6166 6.88897C43.9679 8.23903 45.4605 9.43944 47.0689 10.4698C48.8187 11.3859 50.6608 12.1141 52.5639 12.6422C55.7537 13.6548 58.7673 14.6107 60.0901 16.8966C61.3525 19.0798 60.7008 22.1224 60.0092 25.3448C59.5115 27.321 59.2195 29.3431 59.1379 31.3793C59.219 33.4155 59.5106 35.4376 60.008 37.4138C60.6996 40.635 61.3513 43.6776 60.0889 45.8621C58.7613 48.1479 55.7525 49.1038 52.5627 50.1164C50.6599 50.6447 48.8184 51.3729 47.0689 52.2888C45.461 53.3192 43.9687 54.5197 42.6179 55.8697C40.1329 58.1724 37.7879 60.3448 34.9999 60.3448ZM53.2591 59.1476C52.669 59.0741 52.1133 59.4413 51.9496 60.0129L50.1827 66.1753L43.8416 58.0228L44.2568 57.639C45.4777 56.4137 46.8249 55.321 48.2758 54.3791C49.8749 53.5529 51.556 52.896 53.2916 52.4191L53.9591 52.2055L60.0177 59.9924L53.2591 59.1476Z" fill="#8EDAC2" stroke="white" stroke-width="1.2" mask="url(#path-2-inside-1)"/>
<mask id="path-3-inside-2" fill="white">
<path d="M35 9.65518C23.0021 9.65518 13.2759 19.3814 13.2759 31.3793C13.2759 43.3772 23.0021 53.1035 35 53.1035C46.9979 53.1035 56.7242 43.3772 56.7242 31.3793C56.7103 19.3871 46.9922 9.66921 35 9.65518ZM35 50.6897C24.3353 50.6897 15.6897 42.0441 15.6897 31.3793C15.6897 20.7146 24.3353 12.069 35 12.069C45.6648 12.069 54.3104 20.7146 54.3104 31.3793C54.2977 42.0389 45.6596 50.677 35 50.6897Z"/>
</mask>
<path d="M35 9.65518C23.0021 9.65518 13.2759 19.3814 13.2759 31.3793C13.2759 43.3772 23.0021 53.1035 35 53.1035C46.9979 53.1035 56.7242 43.3772 56.7242 31.3793C56.7103 19.3871 46.9922 9.66921 35 9.65518ZM35 50.6897C24.3353 50.6897 15.6897 42.0441 15.6897 31.3793C15.6897 20.7146 24.3353 12.069 35 12.069C45.6648 12.069 54.3104 20.7146 54.3104 31.3793C54.2977 42.0389 45.6596 50.677 35 50.6897Z" fill="#8EDAC2" stroke="white" stroke-width="1.2" mask="url(#path-3-inside-2)"/>
<mask id="path-4-inside-3" fill="white">
<path d="M48.9251 26.3381C48.471 25.7143 47.7463 25.3451 46.9748 25.3448H39.5861L37.293 18.3122C36.8768 17.0457 35.5127 16.3566 34.2462 16.7728C33.5177 17.0122 32.9462 17.5837 32.7068 18.3122L30.4198 25.3448H23.0251C21.6919 25.3442 20.6107 26.4242 20.6101 27.7574C20.6097 28.5298 20.979 29.2556 21.6034 29.7101L27.5848 34.055L25.3001 41.0876C24.888 42.3554 25.5818 43.7172 26.8495 44.1292C27.5846 44.3682 28.3896 44.2406 29.0149 43.7862L34.9999 39.4426L40.9825 43.7874C41.8252 44.4135 42.9784 44.4135 43.8211 43.7874C44.6764 43.1796 45.0324 42.0831 44.6973 41.0888L42.4127 34.055L48.3941 29.7101C49.472 28.9257 49.7097 27.4158 48.9251 26.3381ZM40.2837 32.6188C39.8604 32.9264 39.6834 33.4717 39.8456 33.9693L42.4011 41.7007C42.4317 41.7934 42.3251 41.8705 42.2466 41.8125L35.7096 36.9744C35.2867 36.6674 34.7144 36.6674 34.2915 36.9744L27.7533 41.8125C27.6749 41.8706 27.5683 41.7934 27.5989 41.7008L30.1542 33.9693C30.3158 33.472 30.139 32.9274 29.7161 32.62L23.006 27.9395C22.9258 27.8835 22.9654 27.7574 23.0633 27.7574L31.296 27.7586C31.8189 27.7586 32.2822 27.4219 32.4437 26.9246L34.9048 19.295C34.9346 19.2026 35.0654 19.2026 35.0952 19.295L37.5561 26.9234C37.7177 27.4207 38.181 27.7574 38.7039 27.7574L46.667 27.7585C46.7639 27.7586 46.8041 27.8825 46.7258 27.9395L40.2837 32.6188Z"/>
</mask>
<path d="M48.9251 26.3381C48.471 25.7143 47.7463 25.3451 46.9748 25.3448H39.5861L37.293 18.3122C36.8768 17.0457 35.5127 16.3566 34.2462 16.7728C33.5177 17.0122 32.9462 17.5837 32.7068 18.3122L30.4198 25.3448H23.0251C21.6919 25.3442 20.6107 26.4242 20.6101 27.7574C20.6097 28.5298 20.979 29.2556 21.6034 29.7101L27.5848 34.055L25.3001 41.0876C24.888 42.3554 25.5818 43.7172 26.8495 44.1292C27.5846 44.3682 28.3896 44.2406 29.0149 43.7862L34.9999 39.4426L40.9825 43.7874C41.8252 44.4135 42.9784 44.4135 43.8211 43.7874C44.6764 43.1796 45.0324 42.0831 44.6973 41.0888L42.4127 34.055L48.3941 29.7101C49.472 28.9257 49.7097 27.4158 48.9251 26.3381ZM40.2837 32.6188C39.8604 32.9264 39.6834 33.4717 39.8456 33.9693L42.4011 41.7007C42.4317 41.7934 42.3251 41.8705 42.2466 41.8125L35.7096 36.9744C35.2867 36.6674 34.7144 36.6674 34.2915 36.9744L27.7533 41.8125C27.6749 41.8706 27.5683 41.7934 27.5989 41.7008L30.1542 33.9693C30.3158 33.472 30.139 32.9274 29.7161 32.62L23.006 27.9395C22.9258 27.8835 22.9654 27.7574 23.0633 27.7574L31.296 27.7586C31.8189 27.7586 32.2822 27.4219 32.4437 26.9246L34.9048 19.295C34.9346 19.2026 35.0654 19.2026 35.0952 19.295L37.5561 26.9234C37.7177 27.4207 38.181 27.7574 38.7039 27.7574L46.667 27.7585C46.7639 27.7586 46.8041 27.8825 46.7258 27.9395L40.2837 32.6188Z" fill="#8EDAC2" stroke="white" stroke-width="1.2" mask="url(#path-4-inside-3)"/>
</svg>
