<svg width="70" height="61" viewBox="0 0 70 61" fill="none" xmlns="http://www.w3.org/2000/svg">
<mask id="path-1-inside-1" fill="white">
<path fill-rule="evenodd" clip-rule="evenodd" d="M12.1563 0.195314C12.0207 0.302815 9.43222 3.37893 6.40423 7.0313C3.37624 10.6837 0.696378 13.8862 0.449189 14.1482C-0.223003 14.86 -0.155658 15.4032 0.752004 16.5923C1.16591 17.1347 8.76878 27.1057 17.6471 38.7503C26.5256 50.3949 33.9336 60.0804 34.1094 60.2739C34.5463 60.7542 35.4532 60.7542 35.8901 60.2739C36.0659 60.0804 43.4739 50.3949 52.3524 38.7503C61.2307 27.1057 68.8336 17.1347 69.2475 16.5923C69.8039 15.8634 70 15.4687 70 15.0781C70 14.7876 69.9241 14.5029 69.8314 14.4456C69.7387 14.3882 67.1689 11.343 64.1209 7.67849C61.0727 4.01393 58.3812 0.787193 58.1394 0.507816L57.6999 0H35.0515C17.1685 0 12.3511 0.041094 12.1563 0.195314ZM26.7184 7.73443C23.7545 10.6993 21.2939 13.1243 21.2504 13.1234C21.177 13.1217 15.1402 2.80877 15.0257 2.48908C14.994 2.40064 18.3245 2.34377 23.5404 2.34377H32.1074L26.7184 7.73443ZM54.9738 2.49377C54.8654 2.80627 48.8244 13.1223 48.7491 13.1237C48.7056 13.1245 46.245 10.6993 43.2811 7.73443L37.8921 2.34377H46.459C51.8647 2.34377 55.0068 2.39908 54.9738 2.49377ZM40.6248 8.35944L46.17 13.9063H34.9997H23.8295L29.3747 8.35944C32.4246 5.30863 34.9558 2.81252 34.9997 2.81252C35.0437 2.81252 37.5749 5.30863 40.6248 8.35944ZM15.8137 8.55475L18.8845 13.8282L15.156 13.8701C13.1054 13.8931 9.71082 13.8931 7.61252 13.8701L3.79749 13.8282L8.18425 8.55475C10.5971 5.65442 12.6097 3.28127 12.6569 3.28127C12.7041 3.28127 14.1248 5.65442 15.8137 8.55475ZM61.8609 8.63287L66.2501 13.9063H58.6668H51.0836L51.2839 13.5412C52.48 11.3607 57.2813 3.28768 57.3637 3.31862C57.4232 3.34112 59.447 5.73254 61.8609 8.63287ZM25.9683 34.7481C29.1363 44.793 31.708 53.0316 31.6835 53.0563C31.6333 53.1065 3.8575 16.7697 3.77515 16.5462C3.74374 16.4611 7.04486 16.42 11.9655 16.444L20.2084 16.4845L25.9683 34.7481ZM47.3103 16.6017C47.2736 16.7092 44.5062 25.4971 41.1607 36.1304C37.8151 46.7638 35.0427 55.4638 34.9997 55.4638C34.9568 55.4638 32.1844 46.7638 28.8388 36.1304C25.4933 25.4971 22.7259 16.7092 22.6892 16.6017C22.6362 16.4465 25.1666 16.4064 34.9997 16.4064C44.8329 16.4064 47.3633 16.4465 47.3103 16.6017ZM66.2239 16.5482C66.1417 16.7722 38.3668 53.1069 38.3163 53.0565C38.2812 53.0213 49.4638 17.4017 49.7611 16.6017C49.818 16.4489 51.621 16.4064 58.0549 16.4064C62.9153 16.4064 66.2547 16.4643 66.2239 16.5482Z"/>
</mask>
<path fill-rule="evenodd" clip-rule="evenodd" d="M12.1563 0.195314C12.0207 0.302815 9.43222 3.37893 6.40423 7.0313C3.37624 10.6837 0.696378 13.8862 0.449189 14.1482C-0.223003 14.86 -0.155658 15.4032 0.752004 16.5923C1.16591 17.1347 8.76878 27.1057 17.6471 38.7503C26.5256 50.3949 33.9336 60.0804 34.1094 60.2739C34.5463 60.7542 35.4532 60.7542 35.8901 60.2739C36.0659 60.0804 43.4739 50.3949 52.3524 38.7503C61.2307 27.1057 68.8336 17.1347 69.2475 16.5923C69.8039 15.8634 70 15.4687 70 15.0781C70 14.7876 69.9241 14.5029 69.8314 14.4456C69.7387 14.3882 67.1689 11.343 64.1209 7.67849C61.0727 4.01393 58.3812 0.787193 58.1394 0.507816L57.6999 0H35.0515C17.1685 0 12.3511 0.041094 12.1563 0.195314ZM26.7184 7.73443C23.7545 10.6993 21.2939 13.1243 21.2504 13.1234C21.177 13.1217 15.1402 2.80877 15.0257 2.48908C14.994 2.40064 18.3245 2.34377 23.5404 2.34377H32.1074L26.7184 7.73443ZM54.9738 2.49377C54.8654 2.80627 48.8244 13.1223 48.7491 13.1237C48.7056 13.1245 46.245 10.6993 43.2811 7.73443L37.8921 2.34377H46.459C51.8647 2.34377 55.0068 2.39908 54.9738 2.49377ZM40.6248 8.35944L46.17 13.9063H34.9997H23.8295L29.3747 8.35944C32.4246 5.30863 34.9558 2.81252 34.9997 2.81252C35.0437 2.81252 37.5749 5.30863 40.6248 8.35944ZM15.8137 8.55475L18.8845 13.8282L15.156 13.8701C13.1054 13.8931 9.71082 13.8931 7.61252 13.8701L3.79749 13.8282L8.18425 8.55475C10.5971 5.65442 12.6097 3.28127 12.6569 3.28127C12.7041 3.28127 14.1248 5.65442 15.8137 8.55475ZM61.8609 8.63287L66.2501 13.9063H58.6668H51.0836L51.2839 13.5412C52.48 11.3607 57.2813 3.28768 57.3637 3.31862C57.4232 3.34112 59.447 5.73254 61.8609 8.63287ZM25.9683 34.7481C29.1363 44.793 31.708 53.0316 31.6835 53.0563C31.6333 53.1065 3.8575 16.7697 3.77515 16.5462C3.74374 16.4611 7.04486 16.42 11.9655 16.444L20.2084 16.4845L25.9683 34.7481ZM47.3103 16.6017C47.2736 16.7092 44.5062 25.4971 41.1607 36.1304C37.8151 46.7638 35.0427 55.4638 34.9997 55.4638C34.9568 55.4638 32.1844 46.7638 28.8388 36.1304C25.4933 25.4971 22.7259 16.7092 22.6892 16.6017C22.6362 16.4465 25.1666 16.4064 34.9997 16.4064C44.8329 16.4064 47.3633 16.4465 47.3103 16.6017ZM66.2239 16.5482C66.1417 16.7722 38.3668 53.1069 38.3163 53.0565C38.2812 53.0213 49.4638 17.4017 49.7611 16.6017C49.818 16.4489 51.621 16.4064 58.0549 16.4064C62.9153 16.4064 66.2547 16.4643 66.2239 16.5482Z" fill="#8EDAC2" stroke="white" stroke-width="1.2" mask="url(#path-1-inside-1)"/>
</svg>
