<svg width="82" height="70" viewBox="0 0 82 70" fill="none" xmlns="http://www.w3.org/2000/svg">
<mask id="path-1-inside-1" fill="white">
<path d="M72.3428 36.5309C69.5826 35.0175 64.4072 35 64.1883 35C63.532 35 63 35.5835 63 36.3032C63 37.0228 63.532 37.6063 64.1883 37.6063C65.5237 37.6065 69.4012 37.832 71.2801 38.8622C71.4507 38.9559 71.6319 39 71.8105 39C72.2464 39 72.6661 38.7359 72.8742 38.2794C73.1678 37.6357 72.9299 36.8529 72.3428 36.5309Z"/>
</mask>
<path d="M72.3428 36.5309C69.5826 35.0175 64.4072 35 64.1883 35C63.532 35 63 35.5835 63 36.3032C63 37.0228 63.532 37.6063 64.1883 37.6063C65.5237 37.6065 69.4012 37.832 71.2801 38.8622C71.4507 38.9559 71.6319 39 71.8105 39C72.2464 39 72.6661 38.7359 72.8742 38.2794C73.1678 37.6357 72.9299 36.8529 72.3428 36.5309Z" fill="#8EDAC2" stroke="white" mask="url(#path-1-inside-1)"/>
<mask id="path-2-inside-2" fill="white">
<path d="M78.3343 53.7884L73.3735 52.3521C73.1594 52.2901 73.0098 52.0892 73.0098 51.8634V50.1855C73.4134 49.9022 73.7984 49.585 74.1583 49.2311C75.9024 47.516 76.8628 45.2155 76.8628 42.7532V40.4378L77.3425 39.4658C77.8689 38.3988 78.1471 37.2041 78.1471 36.0113V29.7387C78.1471 29.0665 77.6093 28.5216 76.9459 28.5216H65.387C61.1838 28.5216 57.7642 31.9868 57.7642 36.246V36.3185C57.7642 37.3104 57.9956 38.3038 58.4333 39.1909L59.0485 40.4376V42.4257C59.0485 45.5764 60.5807 48.4034 62.9015 50.1045L62.9018 51.8631C62.9018 52.1343 62.9018 52.2466 61.91 52.5339L59.4894 53.2346L52.4872 50.6545C52.5124 50.3197 52.4009 49.9792 52.1598 49.7227L49.9223 47.3405V43.3417C50.1589 43.1442 50.392 42.9413 50.618 42.7268C53.4408 40.0457 55.0596 36.2604 55.0596 32.3416V29.148C55.912 27.2685 56.3439 25.2796 56.3439 23.2313V10.2172C56.3439 9.54497 55.8061 9 55.1428 9H37.1622C30.8344 9 25.6865 14.2167 25.6865 20.6287V23.2317C25.6865 25.2799 26.1184 27.2688 26.9708 29.1483V31.8961C26.9708 36.4461 28.9673 40.5452 32.1081 43.2477V47.3407L29.8706 49.7228C29.6295 49.9794 29.5181 50.3199 29.5432 50.6547L22.1528 53.3778C21.6173 53.5751 21.1196 53.8424 20.6678 54.1662L19.5074 53.5782C22.9619 52.0545 24.0563 49.9114 24.1088 49.8049C24.2779 49.4623 24.2779 49.0589 24.1088 48.7163C23.2428 46.9613 23.1379 43.7445 23.0537 41.1598C23.0257 40.2994 22.9991 39.4864 22.9483 38.7626C22.5388 32.9244 18.1588 28.5216 12.76 28.5216C7.3611 28.5216 2.98099 32.9242 2.57163 38.7626C2.52086 39.4866 2.49427 40.2995 2.46625 41.1602C2.382 43.7447 2.27694 46.9611 1.41114 48.7161C1.24201 49.0587 1.24201 49.4622 1.41114 49.8048C1.46367 49.9112 2.55577 52.0499 6.01723 53.5755L2.79377 55.2086C1.07048 56.0824 0 57.8376 0 59.7898V68.7822C0 69.4544 0.537805 69.9993 1.20117 69.9993C1.86454 69.9993 2.40234 69.4544 2.40234 68.7822V59.7898C2.40234 58.7654 2.96401 57.8444 3.86809 57.3862L7.88209 55.3525L9.27833 56.6971C10.2546 57.6373 11.5071 58.1071 12.76 58.1071C14.0126 58.1071 15.2656 57.637 16.2416 56.6971L17.6377 55.3527L18.9465 56.0158C18.3302 57.0151 17.9804 58.1868 17.9804 59.4142V68.7825C17.9804 69.4547 18.5182 69.9997 19.1816 69.9997C19.845 69.9997 20.3828 69.4547 20.3828 68.7825V59.4142C20.3828 57.7433 21.4239 56.2369 22.9738 55.6658L30.7657 52.7947L34.0093 57.7253C34.424 58.3556 35.0885 58.7599 35.8324 58.8345C35.9154 58.8428 35.9978 58.8468 36.0802 58.8468C36.7365 58.8468 37.3651 58.5851 37.835 58.1091L39.8139 56.1038V68.7827C39.8139 69.4549 40.3517 69.9998 41.0151 69.9998C41.6784 69.9998 42.2162 69.4549 42.2162 68.7827V56.1038L44.1951 58.1091C44.6649 58.5852 45.2935 58.847 45.95 58.847C46.0321 58.847 46.1147 58.843 46.1976 58.8347C46.9416 58.76 47.6061 58.3557 48.0208 57.7254L51.2646 52.795L59.0563 55.6661C60.606 56.2372 61.6473 57.7436 61.6473 59.4145V68.7828C61.6473 69.455 62.1852 70 62.8485 70C63.5119 70 64.0497 69.455 64.0497 68.7828V59.4145C64.0497 57.7222 63.3862 56.135 62.2731 54.9611L62.5698 54.8752C62.8692 54.7886 63.2776 54.6699 63.6876 54.4663L66.7544 57.574V68.7828C66.7544 69.455 67.2922 70 67.9556 70C68.6189 70 69.1568 69.455 69.1568 68.7828V57.574L72.2023 54.4879C72.3642 54.5713 72.5343 54.6417 72.7133 54.6935L77.6743 56.1298C78.8066 56.4576 79.5977 57.5201 79.5977 58.7136V68.7828C79.5977 69.455 80.1355 70 80.7988 70C81.4622 70 82 69.455 82 68.7828V58.7136C82 56.4386 80.4926 54.4134 78.3343 53.7884ZM7.70592 51.6385C5.45909 50.8193 4.33207 49.727 3.85096 49.1306C4.17896 48.2617 4.39164 47.2665 4.53562 46.216C5.19803 47.8255 6.30743 49.1994 7.70592 50.1797V51.6385ZM14.587 54.9327C13.5625 55.9191 11.9576 55.9189 10.9334 54.9325L9.8163 53.8569C10.0048 53.499 10.1084 53.0933 10.1084 52.6682V51.3709C10.9464 51.6362 11.8371 51.7794 12.7603 51.7794C13.6823 51.7794 14.5726 51.6356 15.412 51.3717L15.4118 52.6681C15.4118 53.0933 15.5153 53.4992 15.704 53.8572L14.587 54.9327ZM12.7606 49.345C9.17375 49.345 6.25586 46.3881 6.25586 42.7535C6.25586 42.0813 5.71806 41.5364 5.05469 41.5364C4.98743 41.5364 4.92176 41.5433 4.85754 41.5542C4.86106 41.4495 4.86443 41.3447 4.86795 41.241C4.8947 40.404 4.92048 39.6135 4.96805 38.9355C5.12148 36.7484 5.98392 34.7331 7.3965 33.2605C8.82173 31.7745 10.7266 30.9562 12.7603 30.9562C14.794 30.9562 16.6987 31.7745 18.1241 33.2605C19.5367 34.7331 20.3991 36.7484 20.5525 38.9355C20.5999 39.6134 20.6259 40.4037 20.6531 41.2405C20.6555 41.3124 20.6579 41.3853 20.6603 41.4576C19.3534 39.4173 17.3352 37.9137 14.7273 37.0646C12.3181 36.2802 10.246 36.3287 10.1586 36.331C9.844 36.3399 9.54547 36.4733 9.32718 36.7028L7.15995 38.9804C6.6995 39.4644 6.71327 40.2349 7.19086 40.7015C7.66844 41.1681 8.42886 41.154 8.88931 40.6702L10.6927 38.7751C12.2457 38.8521 17.2421 39.4408 19.1853 43.7768C18.6963 46.972 15.9862 49.345 12.7606 49.345ZM17.814 51.6426L17.8142 50.1909C19.2115 49.216 20.3225 47.8446 20.9854 46.223C21.1294 47.2711 21.3419 48.264 21.6693 49.1309C21.1909 49.7217 20.0586 50.8236 17.814 51.6426ZM29.3731 31.8959V28.876C29.3731 28.6928 29.3323 28.5118 29.2537 28.3468C28.4807 26.7248 28.0888 25.0039 28.0888 23.2317V20.6288C28.0888 15.559 32.1592 11.4345 37.1622 11.4345H53.9416V23.2318C53.9416 25.004 53.5497 26.725 52.7768 28.3469C52.6981 28.512 52.6573 28.6929 52.6573 28.8762V32.3419C52.6573 35.6382 51.3496 38.6956 48.9751 40.951C48.6787 41.2324 48.371 41.4963 48.053 41.7421C48.0459 41.747 48.0392 41.7524 48.0323 41.7574C45.8079 43.4688 43.0833 44.3005 40.238 44.1137C34.1455 43.714 29.3731 38.3473 29.3731 31.8959ZM36.1364 56.3875C36.128 56.3959 36.1087 56.4159 36.0694 56.4117C36.0304 56.4078 36.015 56.3846 36.0084 56.3745L32.2728 50.6962L33.4749 49.4163L39.142 53.3416L36.1364 56.3875ZM41.0152 51.6903L34.5105 47.1847V44.9127C36.1936 45.8346 38.0781 46.4113 40.0825 46.5427C40.3991 46.5635 40.7138 46.5737 41.0275 46.5737C43.3243 46.5737 45.5348 46.0174 47.52 44.9613V47.1847L41.0152 51.6903ZM46.022 56.3748C46.0155 56.3849 46.0001 56.4081 45.961 56.412C45.9218 56.417 45.9025 56.3961 45.8941 56.3878L42.8884 53.3421L48.5555 49.4166L49.7578 50.6966L46.022 56.3748ZM67.9556 55.3478L65.2297 52.5858C65.2773 52.3669 65.3042 52.1272 65.304 51.8628L65.3039 51.3491C66.0603 51.6007 66.8575 51.75 67.6825 51.775C67.7751 51.7779 67.8669 51.7792 67.9591 51.7792C68.8707 51.7792 69.7605 51.6396 70.6074 51.3733V51.8634C70.6074 52.1062 70.6376 52.3442 70.6943 52.5728L67.9556 55.3478ZM72.4853 47.4842C71.2122 48.7361 69.5304 49.3973 67.7547 49.3418C64.2787 49.2361 61.4508 46.1336 61.4508 42.426V40.1505C61.4508 39.9615 61.4074 39.7752 61.324 39.6062L60.582 38.1024C60.3102 37.5514 60.1665 36.9347 60.1665 36.3187V36.2461C60.1665 33.3291 62.5085 30.9561 65.387 30.9561H75.7448V36.0115C75.7448 36.8284 75.5542 37.6465 75.1937 38.3773L74.5873 39.6062C74.5039 39.7753 74.4605 39.9615 74.4605 40.1505V42.7534C74.4605 44.5516 73.759 46.2316 72.4853 47.4842Z"/>
</mask>
<path d="M78.3343 53.7884L73.3735 52.3521C73.1594 52.2901 73.0098 52.0892 73.0098 51.8634V50.1855C73.4134 49.9022 73.7984 49.585 74.1583 49.2311C75.9024 47.516 76.8628 45.2155 76.8628 42.7532V40.4378L77.3425 39.4658C77.8689 38.3988 78.1471 37.2041 78.1471 36.0113V29.7387C78.1471 29.0665 77.6093 28.5216 76.9459 28.5216H65.387C61.1838 28.5216 57.7642 31.9868 57.7642 36.246V36.3185C57.7642 37.3104 57.9956 38.3038 58.4333 39.1909L59.0485 40.4376V42.4257C59.0485 45.5764 60.5807 48.4034 62.9015 50.1045L62.9018 51.8631C62.9018 52.1343 62.9018 52.2466 61.91 52.5339L59.4894 53.2346L52.4872 50.6545C52.5124 50.3197 52.4009 49.9792 52.1598 49.7227L49.9223 47.3405V43.3417C50.1589 43.1442 50.392 42.9413 50.618 42.7268C53.4408 40.0457 55.0596 36.2604 55.0596 32.3416V29.148C55.912 27.2685 56.3439 25.2796 56.3439 23.2313V10.2172C56.3439 9.54497 55.8061 9 55.1428 9H37.1622C30.8344 9 25.6865 14.2167 25.6865 20.6287V23.2317C25.6865 25.2799 26.1184 27.2688 26.9708 29.1483V31.8961C26.9708 36.4461 28.9673 40.5452 32.1081 43.2477V47.3407L29.8706 49.7228C29.6295 49.9794 29.5181 50.3199 29.5432 50.6547L22.1528 53.3778C21.6173 53.5751 21.1196 53.8424 20.6678 54.1662L19.5074 53.5782C22.9619 52.0545 24.0563 49.9114 24.1088 49.8049C24.2779 49.4623 24.2779 49.0589 24.1088 48.7163C23.2428 46.9613 23.1379 43.7445 23.0537 41.1598C23.0257 40.2994 22.9991 39.4864 22.9483 38.7626C22.5388 32.9244 18.1588 28.5216 12.76 28.5216C7.3611 28.5216 2.98099 32.9242 2.57163 38.7626C2.52086 39.4866 2.49427 40.2995 2.46625 41.1602C2.382 43.7447 2.27694 46.9611 1.41114 48.7161C1.24201 49.0587 1.24201 49.4622 1.41114 49.8048C1.46367 49.9112 2.55577 52.0499 6.01723 53.5755L2.79377 55.2086C1.07048 56.0824 0 57.8376 0 59.7898V68.7822C0 69.4544 0.537805 69.9993 1.20117 69.9993C1.86454 69.9993 2.40234 69.4544 2.40234 68.7822V59.7898C2.40234 58.7654 2.96401 57.8444 3.86809 57.3862L7.88209 55.3525L9.27833 56.6971C10.2546 57.6373 11.5071 58.1071 12.76 58.1071C14.0126 58.1071 15.2656 57.637 16.2416 56.6971L17.6377 55.3527L18.9465 56.0158C18.3302 57.0151 17.9804 58.1868 17.9804 59.4142V68.7825C17.9804 69.4547 18.5182 69.9997 19.1816 69.9997C19.845 69.9997 20.3828 69.4547 20.3828 68.7825V59.4142C20.3828 57.7433 21.4239 56.2369 22.9738 55.6658L30.7657 52.7947L34.0093 57.7253C34.424 58.3556 35.0885 58.7599 35.8324 58.8345C35.9154 58.8428 35.9978 58.8468 36.0802 58.8468C36.7365 58.8468 37.3651 58.5851 37.835 58.1091L39.8139 56.1038V68.7827C39.8139 69.4549 40.3517 69.9998 41.0151 69.9998C41.6784 69.9998 42.2162 69.4549 42.2162 68.7827V56.1038L44.1951 58.1091C44.6649 58.5852 45.2935 58.847 45.95 58.847C46.0321 58.847 46.1147 58.843 46.1976 58.8347C46.9416 58.76 47.6061 58.3557 48.0208 57.7254L51.2646 52.795L59.0563 55.6661C60.606 56.2372 61.6473 57.7436 61.6473 59.4145V68.7828C61.6473 69.455 62.1852 70 62.8485 70C63.5119 70 64.0497 69.455 64.0497 68.7828V59.4145C64.0497 57.7222 63.3862 56.135 62.2731 54.9611L62.5698 54.8752C62.8692 54.7886 63.2776 54.6699 63.6876 54.4663L66.7544 57.574V68.7828C66.7544 69.455 67.2922 70 67.9556 70C68.6189 70 69.1568 69.455 69.1568 68.7828V57.574L72.2023 54.4879C72.3642 54.5713 72.5343 54.6417 72.7133 54.6935L77.6743 56.1298C78.8066 56.4576 79.5977 57.5201 79.5977 58.7136V68.7828C79.5977 69.455 80.1355 70 80.7988 70C81.4622 70 82 69.455 82 68.7828V58.7136C82 56.4386 80.4926 54.4134 78.3343 53.7884ZM7.70592 51.6385C5.45909 50.8193 4.33207 49.727 3.85096 49.1306C4.17896 48.2617 4.39164 47.2665 4.53562 46.216C5.19803 47.8255 6.30743 49.1994 7.70592 50.1797V51.6385ZM14.587 54.9327C13.5625 55.9191 11.9576 55.9189 10.9334 54.9325L9.8163 53.8569C10.0048 53.499 10.1084 53.0933 10.1084 52.6682V51.3709C10.9464 51.6362 11.8371 51.7794 12.7603 51.7794C13.6823 51.7794 14.5726 51.6356 15.412 51.3717L15.4118 52.6681C15.4118 53.0933 15.5153 53.4992 15.704 53.8572L14.587 54.9327ZM12.7606 49.345C9.17375 49.345 6.25586 46.3881 6.25586 42.7535C6.25586 42.0813 5.71806 41.5364 5.05469 41.5364C4.98743 41.5364 4.92176 41.5433 4.85754 41.5542C4.86106 41.4495 4.86443 41.3447 4.86795 41.241C4.8947 40.404 4.92048 39.6135 4.96805 38.9355C5.12148 36.7484 5.98392 34.7331 7.3965 33.2605C8.82173 31.7745 10.7266 30.9562 12.7603 30.9562C14.794 30.9562 16.6987 31.7745 18.1241 33.2605C19.5367 34.7331 20.3991 36.7484 20.5525 38.9355C20.5999 39.6134 20.6259 40.4037 20.6531 41.2405C20.6555 41.3124 20.6579 41.3853 20.6603 41.4576C19.3534 39.4173 17.3352 37.9137 14.7273 37.0646C12.3181 36.2802 10.246 36.3287 10.1586 36.331C9.844 36.3399 9.54547 36.4733 9.32718 36.7028L7.15995 38.9804C6.6995 39.4644 6.71327 40.2349 7.19086 40.7015C7.66844 41.1681 8.42886 41.154 8.88931 40.6702L10.6927 38.7751C12.2457 38.8521 17.2421 39.4408 19.1853 43.7768C18.6963 46.972 15.9862 49.345 12.7606 49.345ZM17.814 51.6426L17.8142 50.1909C19.2115 49.216 20.3225 47.8446 20.9854 46.223C21.1294 47.2711 21.3419 48.264 21.6693 49.1309C21.1909 49.7217 20.0586 50.8236 17.814 51.6426ZM29.3731 31.8959V28.876C29.3731 28.6928 29.3323 28.5118 29.2537 28.3468C28.4807 26.7248 28.0888 25.0039 28.0888 23.2317V20.6288C28.0888 15.559 32.1592 11.4345 37.1622 11.4345H53.9416V23.2318C53.9416 25.004 53.5497 26.725 52.7768 28.3469C52.6981 28.512 52.6573 28.6929 52.6573 28.8762V32.3419C52.6573 35.6382 51.3496 38.6956 48.9751 40.951C48.6787 41.2324 48.371 41.4963 48.053 41.7421C48.0459 41.747 48.0392 41.7524 48.0323 41.7574C45.8079 43.4688 43.0833 44.3005 40.238 44.1137C34.1455 43.714 29.3731 38.3473 29.3731 31.8959ZM36.1364 56.3875C36.128 56.3959 36.1087 56.4159 36.0694 56.4117C36.0304 56.4078 36.015 56.3846 36.0084 56.3745L32.2728 50.6962L33.4749 49.4163L39.142 53.3416L36.1364 56.3875ZM41.0152 51.6903L34.5105 47.1847V44.9127C36.1936 45.8346 38.0781 46.4113 40.0825 46.5427C40.3991 46.5635 40.7138 46.5737 41.0275 46.5737C43.3243 46.5737 45.5348 46.0174 47.52 44.9613V47.1847L41.0152 51.6903ZM46.022 56.3748C46.0155 56.3849 46.0001 56.4081 45.961 56.412C45.9218 56.417 45.9025 56.3961 45.8941 56.3878L42.8884 53.3421L48.5555 49.4166L49.7578 50.6966L46.022 56.3748ZM67.9556 55.3478L65.2297 52.5858C65.2773 52.3669 65.3042 52.1272 65.304 51.8628L65.3039 51.3491C66.0603 51.6007 66.8575 51.75 67.6825 51.775C67.7751 51.7779 67.8669 51.7792 67.9591 51.7792C68.8707 51.7792 69.7605 51.6396 70.6074 51.3733V51.8634C70.6074 52.1062 70.6376 52.3442 70.6943 52.5728L67.9556 55.3478ZM72.4853 47.4842C71.2122 48.7361 69.5304 49.3973 67.7547 49.3418C64.2787 49.2361 61.4508 46.1336 61.4508 42.426V40.1505C61.4508 39.9615 61.4074 39.7752 61.324 39.6062L60.582 38.1024C60.3102 37.5514 60.1665 36.9347 60.1665 36.3187V36.2461C60.1665 33.3291 62.5085 30.9561 65.387 30.9561H75.7448V36.0115C75.7448 36.8284 75.5542 37.6465 75.1937 38.3773L74.5873 39.6062C74.5039 39.7753 74.4605 39.9615 74.4605 40.1505V42.7534C74.4605 44.5516 73.759 46.2316 72.4853 47.4842Z" fill="#8EDAC2" stroke="white" mask="url(#path-2-inside-2)"/>
<mask id="path-3-inside-3" fill="white">
<path d="M76 60C75.4477 60 75 60.532 75 61.1883V68.8117C75 69.468 75.4477 70 76 70C76.5523 70 77 69.468 77 68.8117V61.1883C77 60.5322 76.5523 60 76 60Z"/>
</mask>
<path d="M76 60C75.4477 60 75 60.532 75 61.1883V68.8117C75 69.468 75.4477 70 76 70C76.5523 70 77 69.468 77 68.8117V61.1883C77 60.5322 76.5523 60 76 60Z" fill="#8EDAC2" stroke="white" mask="url(#path-3-inside-3)"/>
<mask id="path-4-inside-4" fill="white">
<path d="M6 61C5.44773 61 5 61.5681 5 62.2688V68.7312C5 69.4319 5.44773 70 6 70C6.55227 70 7 69.4319 7 68.7312V62.2688C7 61.5682 6.55227 61 6 61Z"/>
</mask>
<path d="M6 61C5.44773 61 5 61.5681 5 62.2688V68.7312C5 69.4319 5.44773 70 6 70C6.55227 70 7 69.4319 7 68.7312V62.2688C7 61.5682 6.55227 61 6 61Z" fill="#8EDAC2" stroke="white" mask="url(#path-4-inside-4)"/>
<mask id="path-5-inside-5" fill="white">
<path d="M50.6548 23.6178C46.1971 19.0102 36.8706 19.8911 33.0673 20.4836C31.8693 20.6703 31 21.7181 31 22.9752V25.7817C31 26.4545 31.5277 27 32.1786 27C32.8295 27 33.3572 26.4545 33.3572 25.7817V22.975C33.3572 22.9336 33.3836 22.8982 33.4188 22.8927C34.938 22.656 37.9525 22.2909 41.0758 22.5061C44.7512 22.759 47.4133 23.7127 48.9881 25.3406C49.4484 25.8163 50.1947 25.8163 50.6548 25.3406C51.1151 24.8648 51.1151 24.0934 50.6548 23.6178Z"/>
</mask>
<path d="M50.6548 23.6178C46.1971 19.0102 36.8706 19.8911 33.0673 20.4836C31.8693 20.6703 31 21.7181 31 22.9752V25.7817C31 26.4545 31.5277 27 32.1786 27C32.8295 27 33.3572 26.4545 33.3572 25.7817V22.975C33.3572 22.9336 33.3836 22.8982 33.4188 22.8927C34.938 22.656 37.9525 22.2909 41.0758 22.5061C44.7512 22.759 47.4133 23.7127 48.9881 25.3406C49.4484 25.8163 50.1947 25.8163 50.6548 25.3406C51.1151 24.8648 51.1151 24.0934 50.6548 23.6178Z" fill="#8EDAC2" stroke="white" mask="url(#path-5-inside-5)"/>
<mask id="path-6-inside-6" fill="white">
<path d="M27 62C26.4477 62 26 62.5706 26 63.2745V68.7255C26 69.4294 26.4477 70 27 70C27.5523 70 28 69.4294 28 68.7255V63.2745C28 62.5708 27.5523 62 27 62Z"/>
</mask>
<path d="M27 62C26.4477 62 26 62.5706 26 63.2745V68.7255C26 69.4294 26.4477 70 27 70C27.5523 70 28 69.4294 28 68.7255V63.2745C28 62.5708 27.5523 62 27 62Z" fill="#8EDAC2" stroke="white" mask="url(#path-6-inside-6)"/>
<mask id="path-7-inside-7" fill="white">
<path d="M55 62C54.4477 62 54 62.5706 54 63.2745V68.7255C54 69.4294 54.4477 70 55 70C55.5523 70 56 69.4294 56 68.7255V63.2745C56 62.5708 55.5523 62 55 62Z"/>
</mask>
<path d="M55 62C54.4477 62 54 62.5706 54 63.2745V68.7255C54 69.4294 54.4477 70 55 70C55.5523 70 56 69.4294 56 68.7255V63.2745C56 62.5708 55.5523 62 55 62Z" fill="#8EDAC2" stroke="white" mask="url(#path-7-inside-7)"/>
</svg>
