<svg width="52" height="52" viewBox="0 0 52 52" fill="none" xmlns="http://www.w3.org/2000/svg">
<circle cx="26" cy="26" r="26" fill="#DFF3FC"/>
<path d="M24.4 32.628C24.376 32.508 24.364 32.376 24.364 32.232C24.364 32.088 24.364 31.956 24.364 31.836C24.364 30.828 24.508 29.94 24.796 29.172C25.108 28.404 25.48 27.708 25.912 27.084C26.368 26.436 26.848 25.836 27.352 25.284C27.88 24.732 28.36 24.18 28.792 23.628C29.248 23.052 29.62 22.452 29.908 21.828C30.22 21.18 30.376 20.448 30.376 19.632C30.376 18.528 30.052 17.628 29.404 16.932C28.78 16.236 27.724 15.888 26.236 15.888C25.372 15.888 24.496 16.044 23.608 16.356C22.72 16.644 21.952 16.992 21.304 17.4L20.332 15.168C21.244 14.616 22.204 14.184 23.212 13.872C24.22 13.536 25.468 13.368 26.956 13.368C28.012 13.368 28.936 13.524 29.728 13.836C30.544 14.124 31.216 14.532 31.744 15.06C32.296 15.588 32.704 16.212 32.968 16.932C33.232 17.652 33.364 18.42 33.364 19.236C33.364 20.316 33.196 21.264 32.86 22.08C32.548 22.872 32.14 23.604 31.636 24.276C31.156 24.924 30.628 25.536 30.052 26.112C29.5 26.688 28.972 27.3 28.468 27.948C27.988 28.572 27.58 29.256 27.244 30C26.932 30.744 26.776 31.62 26.776 32.628H24.4ZM23.68 37.344C23.68 36.696 23.86 36.192 24.22 35.832C24.604 35.448 25.108 35.256 25.732 35.256C26.38 35.256 26.896 35.448 27.28 35.832C27.664 36.192 27.856 36.696 27.856 37.344C27.856 37.968 27.664 38.472 27.28 38.856C26.896 39.24 26.38 39.432 25.732 39.432C25.108 39.432 24.604 39.24 24.22 38.856C23.86 38.472 23.68 37.968 23.68 37.344Z" fill="#64697B"/>
</svg>
