<svg width="20" height="20" viewBox="0 0 20 20" fill="none" xmlns="http://www.w3.org/2000/svg">
<path d="M10 0C4.50394 0 0 4.50394 0 10C0 11.8164 0.492096 13.5742 1.418 15.1212L0 20L4.87885 18.582C6.42578 19.5078 8.18359 20 10 20C15.4961 20 20 15.4961 20 10C20 4.50394 15.4961 0 10 0Z" fill="#21D090"/>
<path d="M16.2969 14.2305L15.8281 14.6875C15.1718 15.3438 13.6484 15.2968 12.6758 15.1094C11.8086 14.9454 10.8789 14.5586 10 14.0195C7.60942 12.5664 5.44145 9.98824 4.91411 7.66799C4.55079 6.09756 4.75007 4.7383 5.26567 4.21096L5.73442 3.74221C5.99229 3.49609 6.40229 3.49609 6.66017 3.74221L8.52342 5.60546C8.65236 5.7344 8.7227 5.89843 8.7227 6.07421C8.7227 6.24999 8.65236 6.41402 8.52342 6.54296L8.05467 6.99996C7.55082 7.51556 7.55082 8.34762 8.05467 8.86321L10 10.7735L11.1366 11.8985C11.6524 12.4141 12.5235 12.4141 13.0391 11.8985L13.4961 11.4296C13.7422 11.1952 14.1875 11.1952 14.4336 11.4296L16.2969 13.293C16.543 13.5507 16.5547 13.9609 16.2969 14.2305Z" fill="#ECECF1"/>
<path d="M16.2968 14.2305L15.8281 14.6875C15.1718 15.3437 13.6484 15.2967 12.6758 15.1094C11.8086 14.9453 10.8789 14.5585 10 14.0194V10.7734L11.1366 11.8985C11.6524 12.4141 12.5235 12.4141 13.0391 11.8985L13.4961 11.4296C13.7422 11.1952 14.1875 11.1952 14.4336 11.4296L16.2968 13.293C16.543 13.5507 16.5547 13.9608 16.2968 14.2305Z" fill="#E2E2E7"/>
</svg>
