<svg width="337" height="345" viewBox="0 0 337 345" fill="none" xmlns="http://www.w3.org/2000/svg">
<path fill-rule="evenodd" clip-rule="evenodd" d="M285 228.008C315.953 204.949 336 168.066 336 126.5C336 56.636 279.364 0 209.5 0C189.424 0 170.44 4.67666 153.579 13H174.424C177.044 13 179.559 14.0279 181.429 15.8626L282.004 114.56C283.92 116.441 285 119.013 285 121.697V228.008Z" fill="#52B4DE"/>
<path fill-rule="evenodd" clip-rule="evenodd" d="M73 85.2305C30.4705 100.262 0 140.823 0 188.5C0 236.188 30.4848 276.756 73.03 291.78C73.0101 291.522 73 291.262 73 291V85.2305Z" fill="#8EDAC2"/>
<path d="M73 32C73 26.4772 77.4772 22 83 22H174.517C177.081 22 179.548 22.9854 181.407 24.7524L281.89 120.278C283.876 122.166 285 124.786 285 127.525V291C285 296.523 280.523 301 275 301H83C77.4772 301 73 296.523 73 291V32Z" fill="white"/>
<path d="M74.0552 279C74.0552 271.157 73.1835 146.326 73.0678 74.4539C73.0602 69.7038 67.3825 67.8665 64.8906 71.9105C47.3766 100.332 23.6856 155.976 25.0552 213.5C30.0552 329 94.5552 345 135.555 344.5C176.555 344 218.055 314.5 224.055 311.5C230.055 308.5 229.555 300.5 224.055 300.5H94.4028C94.1274 300.5 93.9207 300.479 93.6502 300.427C84.7287 298.716 74.0552 289.343 74.0552 279Z" fill="#3A4463"/>
<path d="M173 7H128.627C125.778 7 123.162 8.57064 121.821 11.0851C120.675 13.2341 120.611 15.7981 121.648 18.0019L121.766 18.2523C123.13 21.1503 126.044 23 129.247 23H167.458C170.42 23 173.315 23.8766 175.779 25.5192L176.172 25.7812C178.369 27.2459 180.254 29.1312 181.719 31.3282L181.981 31.7211C183.623 34.1851 184.5 37.0692 184.5 40.0306V100.5C184.5 115 198.5 120.5 206 120.5H266.602C269.792 120.5 272.887 121.517 275.46 123.404L275.903 123.729C277.949 125.229 279.691 127.105 281.036 129.257L281.75 130.4C283.221 132.754 284.01 135.459 284.029 138.235C284.371 187.455 285 278.78 285 281.5C285 285 289 285 290.5 284C327.5 265.5 335 240 336 216C336.916 194.023 331.962 177.077 328.433 172.073C328.032 171.505 327.24 171.697 326.991 172.346C319.652 191.426 309.857 204.056 303.754 210.235C302.058 211.951 299.458 210.732 299.428 208.319C299.079 180.779 298.5 133.847 298.5 129C298.5 122.5 296.5 118.5 293 115.5C289.5 112.5 192.5 17.5 188.5 13.5C184.5 9.5 178 7 173 7Z" fill="#3A4463"/>
</svg>
