<svg xmlns='http://www.w3.org/2000/svg'> 
 <symbol id="yandex" viewBox='0 0 24 24' >
  <g>
    <path d='M5.346 4c-.264 0-.477.104-.612.19a1.568 1.568 0 00-.367.336c-.19.237-.367.59-.367 1V15.2a.8.8 0 001.6 0V6.4a.8.8 0 01.8-.8h5.68a.8.8 0 100-1.6H5.346zm2.185 3.75a1.35 1.35 0 011.077-.55h9.002c.543 0 1.024.31 1.29.687.142.2.262.47.262.786 0 .329-.13.637-.367.878l-3.408 3.68a.737.737 0 000 .737l3.407 3.68c.215.216.367.494.4.815.033.326-.066.621-.222.851-.3.443-.83.684-1.362.684H8.743c-.393.012-.926-.032-1.272-.456a1.198 1.198 0 01-.251-.591c-.02-.138-.02-.278-.02-.359V8.747c0-.35.111-.71.33-.998z' fill-rule='evenodd'/> 
  </g>
 </symbol>
 <symbol id="vk" viewBox='0 0 24 24' >
  <g>
    <path xmlns="http://www.w3.org/2000/svg" d="M19.623 7.66c.12-.372 0-.643-.525-.643h-1.745c-.44 0-.644.237-.763.491 0 0-.898 2.17-2.152 3.576-.406.406-.593.542-.813.542-.119 0-.271-.136-.271-.508V7.644c0-.44-.136-.644-.509-.644H10.1c-.27 0-.44.203-.44.407 0 .423.627.525.694 1.711v2.576c0 .559-.101.66-.322.66-.593 0-2.033-2.185-2.897-4.676-.17-.492-.339-.678-.78-.678H4.593C4.085 7 4 7.237 4 7.491c0 .458.593 2.762 2.762 5.813 1.44 2.084 3.49 3.202 5.338 3.202 1.118 0 1.254-.254 1.254-.678v-1.575c0-.509.101-.594.457-.594.254 0 .712.136 1.746 1.136 1.186 1.186 1.39 1.728 2.05 1.728h1.745c.509 0 .746-.254.61-.745-.152-.492-.728-1.203-1.474-2.05-.407-.475-1.017-1-1.203-1.255-.254-.339-.186-.474 0-.78-.017 0 2.118-3.015 2.338-4.032" fill-rule="evenodd"/>
  </g>
 </symbol>
 <symbol id="fb" viewBox='0 0 24 24' >
  <g>
    <path xmlns="http://www.w3.org/2000/svg" d="M13.423 20v-7.298h2.464l.369-2.845h-2.832V8.042c0-.824.23-1.385 1.417-1.385h1.515V4.111A20.255 20.255 0 0014.148 4c-2.183 0-3.678 1.326-3.678 3.76v2.097H8v2.845h2.47V20h2.953z" fill-rule="evenodd"/>
  </g>
 </symbol>
 <symbol id="ok" viewBox='0 0 24 24' >
  <g>
   <path xmlns="http://www.w3.org/2000/svg" d="M11.674 6.536a1.69 1.69 0 00-1.688 1.688c0 .93.757 1.687 1.688 1.687a1.69 1.69 0 001.688-1.687 1.69 1.69 0 00-1.688-1.688zm0 5.763a4.08 4.08 0 01-4.076-4.075 4.08 4.08 0 014.076-4.077 4.08 4.08 0 014.077 4.077 4.08 4.08 0 01-4.077 4.075zm-1.649 3.325a7.633 7.633 0 01-2.367-.98 1.194 1.194 0 011.272-2.022 5.175 5.175 0 005.489 0 1.194 1.194 0 111.272 2.022 7.647 7.647 0 01-2.367.98l2.279 2.28a1.194 1.194 0 01-1.69 1.688l-2.238-2.24-2.24 2.24a1.193 1.193 0 11-1.689-1.689l2.279-2.279" fill-rule="evenodd"/>
  </g>
 </symbol>
 <symbol id="mail" viewBox='0 0 24 24' >
  <g>
   <path xmlns="http://www.w3.org/2000/svg" d="M8.889 9.667a1.333 1.333 0 100-2.667 1.333 1.333 0 000 2.667zm6.222 0a1.333 1.333 0 100-2.667 1.333 1.333 0 000 2.667zm4.77 6.108l-1.802-3.028a.879.879 0 00-1.188-.307.843.843 0 00-.313 1.166l.214.36a6.71 6.71 0 01-4.795 1.996 6.711 6.711 0 01-4.792-1.992l.217-.364a.844.844 0 00-.313-1.166.878.878 0 00-1.189.307l-1.8 3.028a.844.844 0 00.312 1.166.88.88 0 001.189-.307l.683-1.147a8.466 8.466 0 005.694 2.18 8.463 8.463 0 005.698-2.184l.685 1.151a.873.873 0 001.189.307.844.844 0 00.312-1.166z" fill-rule="evenodd"/>
  </g>
 </symbol>
 <symbol id="arrow" viewBox='0 0 14 8' >
  <g>
    <path d="M13 0.999999L7 7L1 1" stroke-width="2" stroke-linecap="round" stroke-linejoin="round"/>
  </g>
 </symbol>
  
</svg>