<svg width="1731" height="369" viewBox="0 0 1731 369" fill="none" xmlns="http://www.w3.org/2000/svg">
<path d="M432 191.75V255H401.25V80C408.583 80 416.5 79.9167 425 79.75C433.667 79.5833 442.333 79.5 451 79.5C463.333 79.5 474 81.0833 483 84.25C492.167 87.25 499.25 91.5 504.25 97C509.25 102.333 512.917 108.25 515.25 114.75C517.583 121.083 518.75 128.083 518.75 135.75C518.75 151.583 513.083 165 501.75 176C490.583 187 474.917 192.5 454.75 192.5C444.583 192.5 437 192.25 432 191.75ZM454 108.25L432 108.75V162.5C440.833 163.333 448.083 163.75 453.75 163.75C463.583 163.75 471.417 161.333 477.25 156.5C483.25 151.667 486.25 144.667 486.25 135.5C486.25 117.333 475.5 108.25 454 108.25ZM585.076 189.5V255H554.326V80C562.993 80 572.41 79.9167 582.576 79.75C592.743 79.5833 601.076 79.5 607.576 79.5C649.91 79.5 671.076 97.5 671.076 133.5C671.076 146.833 667.66 157.833 660.826 166.5C653.993 174.833 646.16 180.5 637.326 183.5L692.076 255H654.826L606.576 189.5H585.076ZM606.076 108.25C605.243 108.25 603.91 108.333 602.076 108.5C600.243 108.5 597.66 108.583 594.326 108.75C590.993 108.75 587.91 108.75 585.076 108.75V160.75H605.076C614.91 160.75 622.91 158.333 629.076 153.5C635.41 148.667 638.576 142.083 638.576 133.75C638.576 116.75 627.743 108.25 606.076 108.25ZM725.912 255H694.912L768.912 79.5H795.912L869.912 255H837.162L818.912 210.25H744.162L725.912 255ZM807.162 181.5L781.662 119.25L755.912 181.5H807.162ZM989.51 80H1020.26L950.26 255.5H927.01L855.01 80H887.76L939.76 209.75L989.51 80ZM1023.02 167.5C1023.02 142 1031.52 120.583 1048.52 103.25C1065.85 85.9167 1087.68 77.25 1114.02 77.25C1140.35 77.25 1162.1 85.5833 1179.27 102.25C1196.6 119.083 1205.27 140.833 1205.27 167.5C1205.27 193.667 1196.6 215.25 1179.27 232.25C1161.93 249.25 1140.18 257.75 1114.02 257.75C1087.68 257.75 1065.93 249.417 1048.77 232.75C1031.6 216.083 1023.02 194.333 1023.02 167.5ZM1055.52 167.5C1055.52 185.167 1061.1 199.833 1072.27 211.5C1083.43 223.167 1097.35 229 1114.02 229C1132.02 229 1146.27 223.167 1156.77 211.5C1167.43 199.833 1172.77 185.167 1172.77 167.5C1172.77 149.667 1167.1 134.917 1155.77 123.25C1144.43 111.75 1130.52 106 1114.02 106C1097.18 106 1083.18 111.75 1072.02 123.25C1061.02 134.75 1055.52 149.5 1055.52 167.5ZM1318.85 210.25C1318.85 204.417 1317.27 199.333 1314.1 195C1310.93 190.667 1306.85 187.167 1301.85 184.5C1296.85 181.667 1291.27 179 1285.1 176.5C1279.1 174 1273.02 171.333 1266.85 168.5C1260.85 165.5 1255.35 162.167 1250.35 158.5C1245.35 154.833 1241.27 150 1238.1 144C1234.93 138 1233.35 131.083 1233.35 123.25C1233.35 110.417 1238.1 99.5833 1247.6 90.75C1257.27 81.9167 1270.1 77.5 1286.1 77.5C1295.93 77.5 1305.18 79.1667 1313.85 82.5C1322.52 85.8333 1329.35 90.25 1334.35 95.75L1322.85 111.75C1313.35 102.25 1301.52 97.5 1287.35 97.5C1277.68 97.5 1270.02 99.8333 1264.35 104.5C1258.68 109.167 1255.85 115.417 1255.85 123.25C1255.85 129.083 1257.43 134.167 1260.6 138.5C1263.77 142.833 1267.85 146.333 1272.85 149C1277.85 151.667 1283.35 154.25 1289.35 156.75C1295.52 159.083 1301.6 161.667 1307.6 164.5C1313.77 167.333 1319.35 170.583 1324.35 174.25C1329.35 177.75 1333.43 182.583 1336.6 188.75C1339.77 194.917 1341.35 202 1341.35 210C1341.35 224.333 1335.85 235.833 1324.85 244.5C1314.18 253.167 1300.68 257.5 1284.35 257.5C1272.85 257.5 1261.85 255.167 1251.35 250.5C1240.85 245.833 1233.43 239.417 1229.1 231.25L1241.35 216.75C1246.18 223.083 1252.6 228.167 1260.6 232C1268.6 235.667 1276.6 237.5 1284.6 237.5C1294.43 237.5 1302.6 235.083 1309.1 230.25C1315.6 225.25 1318.85 218.583 1318.85 210.25ZM1406.31 255H1385.06V80H1406.31V255ZM1501.3 100H1440.05V80H1583.8V100H1522.55V255H1501.3V100ZM1713.73 255H1612.48V80H1711.23V100H1633.73V156.5H1703.73V176.5H1633.73V235H1713.73V255Z" fill="#3A4463"/>
<path fill-rule="evenodd" clip-rule="evenodd" d="M285 240.008C315.953 216.949 336 180.066 336 138.5C336 68.636 279.364 12 209.5 12C189.424 12 170.44 16.6767 153.579 25H174.424C177.044 25 179.559 26.0279 181.429 27.8626L282.004 126.56C283.92 128.441 285 131.013 285 133.697V240.008Z" fill="#52B4DE"/>
<path fill-rule="evenodd" clip-rule="evenodd" d="M73 97.2305C30.4705 112.262 0 152.823 0 200.5C0 248.188 30.4848 288.756 73.03 303.78C73.0101 303.522 73 303.262 73 303V97.2305Z" fill="#8EDAC2"/>
<path d="M73 44C73 38.4772 77.4772 34 83 34H174.517C177.081 34 179.548 34.9854 181.407 36.7524L281.89 132.278C283.876 134.166 285 136.786 285 139.525V303C285 308.523 280.523 313 275 313H83C77.4772 313 73 308.523 73 303V44Z" fill="white"/>
<path d="M74.0552 291C74.0552 283.157 73.1835 158.326 73.0678 86.4539C73.0602 81.7038 67.3825 79.8665 64.8906 83.9105C47.3766 112.332 23.6856 167.976 25.0552 225.5C30.0552 341 94.5552 357 135.555 356.5C176.555 356 218.055 326.5 224.055 323.5C230.055 320.5 229.555 312.5 224.055 312.5H94.4028C94.1274 312.5 93.9207 312.479 93.6502 312.427C84.7287 310.716 74.0552 301.343 74.0552 291Z" fill="#3A4463"/>
<path d="M173 19H128.627C125.778 19 123.162 20.5706 121.821 23.0851C120.675 25.2341 120.611 27.7981 121.648 30.0019L121.766 30.2523C123.13 33.1503 126.044 35 129.247 35H167.458C170.42 35 173.315 35.8766 175.779 37.5192L176.172 37.7812C178.369 39.2459 180.254 41.1312 181.719 43.3282L181.981 43.7211C183.623 46.1851 184.5 49.0692 184.5 52.0306V112.5C184.5 127 198.5 132.5 206 132.5H266.602C269.792 132.5 272.887 133.517 275.46 135.404L275.903 135.729C277.949 137.229 279.691 139.105 281.036 141.257L281.75 142.4C283.221 144.754 284.01 147.459 284.029 150.235C284.371 199.455 285 290.78 285 293.5C285 297 289 297 290.5 296C327.5 277.5 335 252 336 228C336.916 206.023 331.962 189.077 328.433 184.073C328.032 183.505 327.24 183.697 326.991 184.346C319.652 203.426 309.857 216.056 303.754 222.235C302.058 223.951 299.458 222.732 299.428 220.319C299.079 192.779 298.5 145.847 298.5 141C298.5 134.5 296.5 130.5 293 127.5C289.5 124.5 192.5 29.5 188.5 25.5C184.5 21.5 178 19 173 19Z" fill="#3A4463"/>
</svg>
